/* XPM */
static char *result[] = {
/* columns rows colors chars-per-pixel */
"16 16 18 1 ",
"  c #170625",
". c #1C1030",
"X c #F11339",
"o c #F42632",
"O c #FF3235",
"+ c #FA4D37",
"@ c #FF5A39",
"# c #FF7135",
"$ c #D82046",
"% c #E54B59",
"& c #E2575A",
"* c #D34360",
"= c #CF5F76",
"- c #FF842D",
"; c #FF9F21",
": c #FFBD49",
"> c #FFE676",
", c None",
/* pixels */
",,,,,  ,,,,,,,,,",
",,,,,,, ,,,,,,,,",
",,,,,,    ,,,,,,",
",,,,  @o O  ,,,,",
",,, *@;$ #@O ,,,",
",, =$o@:>;#@O ,,",
",, =**$$XO@O@O,,",
", X$**$XooO#++ ,",
", OX$ooooO@+@O ,",
", @OoO@@#-+#+O ,",
",, @;:>:;@+@O ,,",
",, ;>>;#@+#+o ,,",
",,, :;#@+&OX ,,,",
",,,,  @O%O  ,,,,",
",,,,,.    .,,,,,",
",,,,,,,,,,,,,,,,"
};
