/* XPM */
static char *result[] = {
/* columns rows colors chars-per-pixel */
"63 64 8 1 ",
"  c #323821",
". c #C43F31",
"X c #FFB6FF00",
"o c #88A043",
"O c #9FBC4D",
"+ c #D8B78F",
"@ c #FFD7A8",
"# c white",
/* pixels */
"XXXXXXXXXXXXXXXXXXXXXXXXXXXXXXXXXXXXXXXXXXXXXXXXXXXXXXXXXXXXXXX",
"XXXXXXXXXXXXXXXXXXXXXXXXXXXXXXXXXXXXXXXXXXXXXXXXXXXXXXXXXXXXXXX",
"XXXXXXXXXXXXXXXXXXXXXXXXXXXXXXXXXXXXXXXXXXXXXXXXXXXXXXXXXXXXXXX",
"XXXXXXXXXXXXXXXXXXXXXXXXXXXXXXXXXXXXXXXXXXXXXXXXXXXXXXXXXXXXXXX",
"XXXXXXXXXXXXXXXXXXXXXXXXXXXXXXXXXXXXXXXXXXXXXXXXXXXXXXXXXXXXXXX",
"XXXXXXXXXXXXXXXXXXXXXXXXXXXXXXXXXXXXXXXXXXXXXXXXXXXXXXXXXXXXXXX",
"XXXXXXXXXXXXXXXXXXXXXXXXXXXXXXXXXXXXXXXXXXXXXXXXXXXXXXXXXXXXXXX",
"XXXXXXXXXXXXXXXXXXXXXXXXXXXXXXXXXXXXXXXXXXXXXXXXXXXXXXXXXXXXXXX",
"XXXXXXXXXXXXXXXXXXXXXXXXXXXXXXXXXXXXXXXXXXXXXXXXXXXXXXXXXXXXXXX",
"XXXXXXXXXXXXXX                                    XXXXXXXXXXXXX",
"XXXXXXXXXXXXXX                                    XXXXXXXXXXXXX",
"XXXXXXXXXXXXXX                                    XXXXXXXXXXXXX",
"XXXXXXXXXXX      ooooooooooooOOOOOOOOOOOOOOOOOOOOO   XXXXXXXXXX",
"XXXXXXXXXXX      ooooooooooooOOOOOOOOOOOOOOOOOOOOO   XXXXXXXXXX",
"XXXXXXXXXXX      ooooooooooooOOOOOOOOOOOOOOOOOOOOO   XXXXXXXXXX",
"XXXXXXXX   ...   oooooooooooooooOOOOOOoooooooooOOO   XXXXXXXXXX",
"XXXXXXXX   ...   oooooooooooooooOOOOOOoooooooooOOO   XXXXXXXXXX",
"XXXXXXXX   ...   oooooooooooooooOOOOOOoooooooooOOO   XXXXXXXXXX",
"XXXXXXXX   ...   ooo###   ###oooOOO   OOOOOOOOO      XXXXXXXXXX",
"XXXXXXXX   ...   ooo###   ###oooOOO   OOOOOOOOO      XXXXXXXXXX",
"XXXXXXXX   ...   ooo###   ###oooOOO   OOOOOOOOO      XXXXXXXXXX",
"XXXXXXXX         ooo###   ###oooOOOOOOOOOOOOOOOOOO   XXXXXXXXXX",
"XXXXXXXX         ooo###   ###oooOOOOOOOOOOOOOOOOOO   XXXXXXXXXX",
"XXXXXXXX         ooo###   ###oooOOOOOOOOOOOOOOOOOO   XXXXXXXXXX",
"XXXXXXXXXXX   ...   #########oooOOOOOOOOOOOOOOOOOO   XXXXXXXXXX",
"XXXXXXXXXXX   ...   #########oooOOOOOOOOOOOOOOOOOO   XXXXXXXXXX",
"XXXXXXXXXXX   ...   #########oooOOOOOOOOOOOOOOOOOO   XXXXXXXXXX",
"XXXXXXXXXXX   ...   ooooooooooooOOOOOOOOOOOOOOOOOO   XXXXXXXXXX",
"XXXXXXXXXXX   ...   ooooooooooooOOOOOOOOOOOOOOOOOO   XXXXXXXXXX",
"XXXXXXXXXXX   ...   ooooooooooooOOOOOOOOOOOOOOOOOO   XXXXXXXXXX",
"XXXXXXXXXXX         oooooooooooooooOOO               XXXXXXXXXX",
"XXXXXXXXXXX         oooooooooooooooOOO               XXXXXXXXXX",
"XXXXXXXXXXX         oooooooooooooooOOO               XXXXXXXXXX",
"XXXXXXXXXXXXXXXXX      ooooooOOOOOOOOOOOO   XXXXXXXXXXXXXXXXXXX",
"XXXXXXXXXXXXXXXXX      ooooooOOOOOOOOOOOO   XXXXXXXXXXXXXXXXXXX",
"XXXXXXXXXXXXXXXXX      ooooooOOOOOOOOOOOO   XXXXXXXXXXXXXXXXXXX",
"XXXXXXXXXXXXXXXXXXXX   ooo+++@@@@@@@@@@@@   XXXXXXXXXXXXXXXXXXX",
"XXXXXXXXXXXXXXXXXXXX   ooo+++@@@@@@@@@@@@   XXXXXXXXXXXXXXXXXXX",
"XXXXXXXXXXXXXXXXXXXX   ooo+++@@@@@@@@@@@@   XXXXXXXXXXXXXXXXXXX",
"XXXXXXXXXXXXXXXXXXXX   ooo+++@@@@@@@@@@@@   XXXXXXXXXXXXXXXXXXX",
"XXXXXXXXXXXXXXXXXXXX   ooo+++@@@@@@@@@@@@   XXXXXXXXXXXXXXXXXXX",
"XXXXXXXXXXXXXXXXXXXX   ooo+++@@@@@@@@@@@@   XXXXXXXXXXXXXXXXXXX",
"XXXXXXXXXXXXXX      OOOooo+++@@@@@@@@@@@@   XXXXXXXXXXXXXXXXXXX",
"XXXXXXXXXXXXXX      OOOooo+++@@@@@@@@@@@@   XXXXXXXXXXXXXXXXXXX",
"XXXXXXXXXXXXXX      OOOooo+++@@@@@@@@@@@@   XXXXXXXXXXXXXXXXXXX",
"XXXXXXXXXXXXXX   OOOooooooOOO   ++++++OOO      XXXXXXXXXXXXXXXX",
"XXXXXXXXXXXXXX   OOOooooooOOO   ++++++OOO      XXXXXXXXXXXXXXXX",
"XXXXXXXXXXXXXX   OOOooooooOOO   ++++++OOO      XXXXXXXXXXXXXXXX",
"XXXXXXXXXXXXXX         oooooo   OOOOOOOOOOOO   XXXXXXXXXXXXXXXX",
"XXXXXXXXXXXXXX         oooooo   OOOOOOOOOOOO   XXXXXXXXXXXXXXXX",
"XXXXXXXXXXXXXX         oooooo   OOOOOOOOOOOO   XXXXXXXXXXXXXXXX",
"XXXXXXXXXXXXXXXXXXXX                  oooOOO   XXXXXXXXXXXXXXXX",
"XXXXXXXXXXXXXXXXXXXX                  oooOOO   XXXXXXXXXXXXXXXX",
"XXXXXXXXXXXXXXXXXXXX                  oooOOO   XXXXXXXXXXXXXXXX",
"XXXXXXXXXXXXXXXXXXXXXXXXXXXXXXXXXXX         XXXXXXXXXXXXXXXXXXX",
"XXXXXXXXXXXXXXXXXXXXXXXXXXXXXXXXXXX         XXXXXXXXXXXXXXXXXXX",
"XXXXXXXXXXXXXXXXXXXXXXXXXXXXXXXXXXX         XXXXXXXXXXXXXXXXXXX",
"XXXXXXXXXXXXXXXXXXXXXXXXXXXXXXXXXXXXXXXXXXXXXXXXXXXXXXXXXXXXXXX",
"XXXXXXXXXXXXXXXXXXXXXXXXXXXXXXXXXXXXXXXXXXXXXXXXXXXXXXXXXXXXXXX",
"XXXXXXXXXXXXXXXXXXXXXXXXXXXXXXXXXXXXXXXXXXXXXXXXXXXXXXXXXXXXXXX",
"XXXXXXXXXXXXXXXXXXXXXXXXXXXXXXXXXXXXXXXXXXXXXXXXXXXXXXXXXXXXXXX",
"XXXXXXXXXXXXXXXXXXXXXXXXXXXXXXXXXXXXXXXXXXXXXXXXXXXXXXXXXXXXXXX",
"XXXXXXXXXXXXXXXXXXXXXXXXXXXXXXXXXXXXXXXXXXXXXXXXXXXXXXXXXXXXXXX",
"XXXXXXXXXXXXXXXXXXXXXXXXXXXXXXXXXXXXXXXXXXXXXXXXXXXXXXXXXXXXXXX"
};
