/* XPM */
static char *result[] = {
/* columns rows colors chars-per-pixel */
"57 57 10 1 ",
"  c #2E351B",
". c #3C744D",
"X c #C53D2D",
"o c #7BB254",
"O c #4C9362",
"+ c #89A141",
"@ c #A0BE4C",
"# c #D9B990",
"$ c #FFD8A9",
"% c white",
/* pixels */
"OOOOOOOOOOOOOOOOOOO.O.OOOOOOOOOOOOOOOOOOOOOOOOOOOOOOOOOO.",
"OOOOOOOOOOOOOOOOOOOO.OOOOOOOOOOOOOOOOOOOOOOOOOOOOOOOOOOOO",
"OOOOOOOOOOOOOOOOOOOOOOOOOOOOOOOOOOOOOOOOOOOOOOOOOOOOOOOOO",
"OOOOOOOOOOOOOOOOOOOOOOOOOOOOOOOOOOOOOOOOOOOOOOOOOOOOOOOOO",
"OOOOOOOOOOOOOOOOOOOOOOOOOoOOOOOOOOOOOOOOOOOOOOOOOOOOOOOOO",
"OOOOOOOOOOOOOOOOOOOOOOOOooOOOOOOOOOOOOOOOOOOOOOOOOOOOOOO.",
"OOOOOOOOOOO                                    OOOOOOOOOO",
"OOOOOOOOOOO                                    OOOOOOOOOO",
"OOOOOOOOOOO                                    OOOOOOOOOO",
"OOOOOOOO      ++++++++++++@@@@@@@@@@@@@@@@@@@@@   OOOOOOO",
"OOOOOOOO      ++++++++++++@@@@@@@@@@@@@@@@@@@@@   OOOOOO.",
"OOOOOOOO      ++++++++++++@@@@@@@@@@@@@@@@@@@@@   OOOOOO.",
"OOOOO   XXX   +++++++++++++++@@@@@@+++++++++@@@   OOOOOO.",
"OOOOO   XXX   +++++++++++++++@@@@@@+++++++++@@@   OOOOOOO",
"OOOOO   XXX   +++++++++++++++@@@@@@+++++++++@@@   OOOOOOO",
"OOOOO   XXX   +++%%%   %%%+++@@@   @@@@@@@@@      OOOOOOO",
"OOOOO   XXX   +++%%%   %%%+++@@@   @@@@@@@@@      OOOOOOO",
"OOOOO   XXX   +++%%%   %%%+++@@@   @@@@@@@@@      OOOOOOO",
"OOOOO         +++%%%   %%%+++@@@@@@@@@@@@@@@@@@   OOOOOOO",
"OOOOO         +++%%%   %%%+++@@@@@@@@@@@@@@@@@@   OOOOOOO",
"OoOOO         +++%%%   %%%+++@@@@@@@@@@@@@@@@@@   OOOOOoO",
"OoOOOOOO   XXX   %%%%%%%%%+++@@@@@@@@@@@@@@@@@@   OOOoOoO",
"OoOoOOOO   XXX   %%%%%%%%%+++@@@@@@@@@@@@@@@@@@   OOOoOo.",
"OoOoOOOO   XXX   %%%%%%%%%+++@@@@@@@@@@@@@@@@@@   OOOoOO.",
"OOOoOOOO   XXX   ++++++++++++@@@@@@@@@@@@@@@@@@   OOOOOOO",
"OOOOOOOO   XXX   ++++++++++++@@@@@@@@@@@@@@@@@@   OOOOOOO",
"OOOOOOOO   XXX   ++++++++++++@@@@@@@@@@@@@@@@@@   OOOOOO.",
"OOOOOOOO         +++++++++++++++@@@               OOOOOOO",
"OOOOOOOO         +++++++++++++++@@@               OOOOOOO",
"OOOOOOOO         +++++++++++++++@@@               OOOOOOO",
"OOOOOOOOOOOOOO      ++++++@@@@@@@@@@@@   OOOOOOOOOOOOOOO.",
"OOOOOOOOOOOOOO      ++++++@@@@@@@@@@@@   OOOOOOOOOOOOOOO.",
"OOOOOOOOOOOOOO      ++++++@@@@@@@@@@@@   OOOOOOOOOOOOOOO.",
"OOOOOOOOOOOOOOOOO   +++###$$$$$$$$$$$$   OOOOOOOOOOOOOOOO",
"ooOOOOOOOOOOOOOOO   +++###$$$$$$$$$$$$   OOOOOOOOOOOOOOOO",
"OooOooOOOOOOOOOOO   +++###$$$$$$$$$$$$   OOOOOOOOOOOOOOOO",
"OOoooOOOOOOOOOOOO   +++###$$$$$$$$$$$$   OOOOOOOooOOOOOOO",
"OO.o.OOOOOOOOOOOO   +++###$$$$$$$$$$$$   OOOOOOOOooOooOO.",
"OO..OOOOOOOOOOOOO   +++###$$$$$$$$$$$$   OOOOOOOOOoooOOOO",
"OOOOOOOOOOO      @@@+++###$$$$$$$$$$$$   OOOOOOOOO.o.OOOO",
"OOOOOOOOOOO      @@@+++###$$$$$$$$$$$$   OOOOOOOOO..OOOOO",
"OOOOOOOOOOO      @@@+++###$$$$$$$$$$$$   OOOOOOOOOOOOOOOO",
"OOOOOOOOOOO   @@@++++++@@@   ######@@@      OOOOOOOOOOOO.",
"OOOOOOOOOOO   @@@++++++@@@   ######@@@      OOOOOOOOOOOO.",
"OOOOOOOOOOO   @@@++++++@@@   ######@@@      OOOOOOOOOOOO.",
"OOOOOOOOOOO         ++++++   @@@@@@@@@@@@   OOOOOOOOOOOOO",
"OOOOOOOOOOO         ++++++   @@@@@@@@@@@@   OOOOOOOOOOOOO",
"OOOOOOOOOOO         ++++++   @@@@@@@@@@@@   OOOOOOOOOOOOO",
"OOOOOOOOOOOOOOOOO                  +++@@@   OOOOOOOOOOOOO",
"OOOOOOOOOOOOOOOOO                  +++@@@   OOOOOOOOOOOOO",
"OOOOOOOOOOOOOOOOO                  +++@@@   OOOOOOOOOOOOO",
"OOOOOOOOOOOOOOOOOOOOOOOOOOOOooOO         OOOOOOOOOOOOOOOO",
"OOOOOOOOOOOOOOOOOoOOOOOOOOOOooOO         OOOOOOOOOOOOOOOO",
"OOOOOOOOOOOOOOOOOoOOOOOOOOOOOo.o         OOOOOOOOOOOOOOOO",
"OOOOOOOOOOOOOOOOOoOoOOOOOOOOO.oo.OOOOOOOOOOOOOOOOOOOOOOO.",
"OOOOOOOOOOOOOOOOOoOoOOOOOOOOOO..OOOOOOOOOOOOOOOOOOOOOOOO.",
"OOOOOOOOOOOOOOOOOOOoOOOOOOOOOOOOOOOOOOOOOOOOOOOOOOOOOOOOO"
};
