/* XPM */
static char *result[] = {
/* columns rows colors chars-per-pixel */
"64 64 236 2 ",
"   c #2E351B",
".  c #C53D2D",
"X  c #518B00",
"o  c #538B00",
"O  c #518C00",
"+  c #538D00",
"@  c #548C00",
"#  c #558C00",
"$  c #558D00",
"%  c #548E00",
"&  c #568E00",
"*  c #568F00",
"=  c #578F00",
"-  c #549000",
";  c #559100",
":  c #579000",
">  c #569200",
",  c #569300",
"<  c #579300",
"1  c #579400",
"2  c #569500",
"3  c #579600",
"4  c #589100",
"5  c #599100",
"6  c #5A9100",
"7  c #599300",
"8  c #5A9200",
"9  c #5D9300",
"0  c #589400",
"q  c #589500",
"w  c #599500",
"e  c #5A9400",
"r  c #5B9500",
"t  c #599600",
"y  c #589700",
"u  c #5A9600",
"i  c #5A9700",
"p  c #5B9700",
"a  c #5C9400",
"s  c #5D9500",
"d  c #5E9400",
"f  c #5C9600",
"g  c #5D9700",
"h  c #5E9700",
"j  c #5B9800",
"k  c #5B9900",
"l  c #5B9B00",
"z  c #5C9800",
"x  c #5C9900",
"c  c #5D9900",
"v  c #5E9800",
"b  c #5F9800",
"n  c #5F9900",
"m  c #5C9A00",
"M  c #5D9A00",
"N  c #5D9B00",
"B  c #5E9A00",
"V  c #5E9B00",
"C  c #5E9C00",
"Z  c #5F9C00",
"A  c #5F9F00",
"S  c #609500",
"D  c #619700",
"F  c #609900",
"G  c #629800",
"H  c #639900",
"J  c #609A00",
"K  c #619A00",
"L  c #609B00",
"P  c #619B00",
"I  c #629B00",
"U  c #669B00",
"Y  c #609C00",
"T  c #609D00",
"R  c #629C00",
"E  c #639C00",
"W  c #629D00",
"Q  c #639D00",
"!  c #609E00",
"~  c #619E00",
"^  c #619F00",
"/  c #639E00",
"(  c #629F00",
")  c #659C00",
"_  c #649D00",
"`  c #669D00",
"'  c #649E00",
"]  c #659E00",
"[  c #649F00",
"{  c #659F00",
"}  c #679E00",
"|  c #669F00",
" . c #679F00",
".. c #689F00",
"X. c #6A9F00",
"o. c #60A000",
"O. c #62A000",
"+. c #63A000",
"@. c #63A100",
"#. c #62A200",
"$. c #64A100",
"%. c #66A000",
"&. c #67A000",
"*. c #67A100",
"=. c #64A200",
"-. c #65A200",
";. c #65A300",
":. c #66A300",
">. c #64A400",
",. c #65A500",
"<. c #66A400",
"1. c #67A400",
"2. c #67A500",
"3. c #67A600",
"4. c #69A000",
"5. c #68A100",
"6. c #6AA000",
"7. c #6AA100",
"8. c #6BA100",
"9. c #69A200",
"0. c #68A300",
"q. c #6BA200",
"w. c #6AA300",
"e. c #6CA200",
"r. c #6CA300",
"t. c #6DA300",
"y. c #69A400",
"u. c #68A500",
"i. c #6BA400",
"p. c #6AA500",
"a. c #68A600",
"s. c #69A600",
"d. c #69A700",
"f. c #6BA600",
"g. c #6AA700",
"h. c #6DA400",
"j. c #6CA500",
"k. c #6EA400",
"l. c #6EA500",
"z. c #6DA600",
"x. c #6CA700",
"c. c #6FA600",
"v. c #6AA800",
"b. c #6BA800",
"n. c #6AA900",
"m. c #6BA900",
"M. c #6BAA00",
"N. c #6DA800",
"B. c #6DA900",
"V. c #6EA800",
"C. c #6EA900",
"Z. c #6FA900",
"A. c #6CAA00",
"S. c #6CAB00",
"D. c #6DAB00",
"F. c #6EAA00",
"G. c #6FAA00",
"H. c #6FAB00",
"J. c #6AAC00",
"K. c #6BAC00",
"L. c #6DAC00",
"P. c #6EAC00",
"I. c #6EAD00",
"U. c #6FAD00",
"Y. c #6FAE00",
"T. c #70A600",
"R. c #71A600",
"E. c #70A700",
"W. c #71A700",
"Q. c #72A700",
"!. c #71A800",
"~. c #72A800",
"^. c #72A900",
"/. c #73A900",
"(. c #70AA00",
"). c #70AB00",
"_. c #71AB00",
"`. c #73AA00",
"'. c #75A900",
"]. c #74AB00",
"[. c #75AB00",
"{. c #70AC00",
"}. c #71AC00",
"|. c #71AD00",
" X c #72AC00",
".X c #72AD00",
"XX c #73AD00",
"oX c #70AE00",
"OX c #71AF00",
"+X c #72AE00",
"@X c #73AE00",
"#X c #73AF00",
"$X c #75AD00",
"%X c #76AC00",
"&X c #74AE00",
"*X c #74AF00",
"=X c #75AF00",
"-X c #76AE00",
";X c #77AF00",
":X c #71B000",
">X c #72B000",
",X c #72B100",
"<X c #73B100",
"1X c #74B000",
"2X c #75B000",
"3X c #75B100",
"4X c #76B000",
"5X c #76B100",
"6X c #74B200",
"7X c #76B200",
"8X c #77B200",
"9X c #77B300",
"0X c #78B000",
"qX c #78B100",
"wX c #79B200",
"eX c #78B300",
"rX c #7AB200",
"tX c #7AB300",
"yX c #7BB300",
"uX c #78B400",
"iX c #79B400",
"pX c #79B500",
"aX c #7BB400",
"sX c #7AB500",
"dX c #7AB600",
"fX c #7BB600",
"gX c #7BB700",
"hX c #7CB400",
"jX c #7CB500",
"kX c #7DB600",
"lX c #7CB700",
"zX c #89A141",
"xX c #A0BE4C",
"cX c #D9B990",
"vX c #FFD8A9",
"bX c white",
/* pixels */
"A.{.@X>X#XD.a.( Z J -.XXwX@XV.[ W ' { _ [ w.V.(.{. XG.y.5.h.w.{ W L E { w.E.!.E.h.| ' | [ R n q 1 , j { <.u.9.{ <.@X3XH.s.*.$.1.",
"{ B..X#X}.v.x.F.B.d.N.5XqX).*.v F E..Xh.w.j.c.P.(.f.w.u.x.(.{.N.*.c g { 7.0.t.V.(.).(.Z.7.c 4 : & = t ( u.s.z.|.@X@X.XD.A.b.a.( ",
"P g.oXOX.XB.M.1X>XB.j.}._.w.) r n E.$XZ.z.c.l.N.f.*.*.V.|.#X&X X5.0 > Z { Q $.Z.@X=XXX).9.g 6 f g u c $.1.w.z.#X2XU.G.G.L.H.f.R ",
"Y f.U.<X<X}.).<XoX2.[ { ' P F h V &.s.h.z.z.j.9.5.:.j..X5XwX4X_.{ & X a F b E (.;X#X(.i.{ v J y.v.0.;.5.:.$.*.N.H.F.C.B.B.D.s.R ",
"^ g.I.<X6X:X#X6XI.-.L h r 9 a J E U &.j.E.z.i.4.| [ *.C.@X-XXX).*.r > b F i P V.@X`.V.r.| _ | (.}.h.*.%.{ / [ 5.x.b.B.C.H.}.b.( ",
"0.B.oX>X6X3X3X2XH.9.P q * @ 5 ` &.[ { V.(.N.j.0.+.z z / *.1.c.}.}.z.p.9.{ v n 0.x.V.N.B.z.w.h.^.b.( x B L W { $.y.B.{.|.@X>X.Xu.",
"A.(.|.oX#X@XOX2X Xx.| s : o > { p. .6.(.].(.l.t.4.v z / %.| y.(.#X$X XN.9.I Y 9.l.z.V.E.V.f.g.C.p.F w 0 f P Q { w.G.#X2X8XeX6XH.",
"#X@X.XH.S.N.F..X*X@XZ.%.b * 7 ' i.k.C.XXXXV.c.E.f.*.*.N.V.p.7.i.N.^.!.j.p.q.w.z.Z.(.Z.l.w.&.5.w.%.F 2 ; * 1 M +.d.1XuXsXhXgXyX5X",
"8X=X`.m.y.:.p.}.4X9X1XV.%.s h ( w.Z.`.^.Z.N.Z._.).b.B.@XXXz.9.9.i.~.Q.x.t.V.E.V.E.}.XX XH.i.9.%.R p 4 % - q Z $.b.*XiXjXkXkXjXiX",
"8X+XF.y.| ( ;._.8XhXiX4XG.| W                                                                         ; w Y &.*.f.H.=XwXpXtXsXiX",
"5X}.N.q.[ ( -._.3X9XeXiX;Xj.|                                                                         g J /  .0.s.l.~.XX*XOX1X4X",
"`.E.x.g.q.{ 4.(. X XXX8XqX(.7.                                                                        -.O.Y ! 9.p.9.q.l.z.b.Z.}.",
"F.N.x.N.s.*.9.C.!.b.C.2X            zXzXzXzXzXzXzXzXzXzXzXzXxXxXxXxXxXxXxXxXxXxXxXxXxXxXxXxXxXxXxXxXxX      +.p.i.+./ &.4.&.,.z.",
"h.g.V.Z.V.a.w.f.x.1.j.=X            zXzXzXzXzXzXzXzXzXzXzXzXxXxXxXxXxXxXxXxXxXxXxXxXxXxXxXxXxXxXxXxXxX      b.B.f.W J ' { [ @.9.",
":.0.p.T.z.0.-.0.y.:.l.qX            zXzXzXzXzXzXzXzXzXzXzXzXxXxXxXxXxXxXxXxXxXxXxXxXxXxXxXxXxXxXxXxXxX      |.{.g.R c Q ' Q / &.",
"{ Q [ i.p./ L / &.      . . .       zXzXzXzXzXzXzXzXzXzXzXzXzXzXzXxXxXxXxXxXxXzXzXzXzXzXzXzXzXzXxXxXxX      #X}.g.Y M Q +.' [ +.",
"{ I R w.p./ J T $.      . . .       zXzXzXzXzXzXzXzXzXzXzXzXzXzXzXxXxXxXxXxXxXzXzXzXzXzXzXzXzXzXxXxXxX      #X|.b.+.T / Q Q ' &.",
"u./ [ j.z.1.$.;.*.      . . .       zXzXzXzXzXzXzXzXzXzXzXzXzXzXzXxXxXxXxXxXxXzXzXzXzXzXzXzXzXzXxXxXxX      ).P.A.g.:.( W T O.f.",
"g.$.$.j.C.f.u.1.0.      . . .       zXzXzXbXbXbX      bXbXbXzXzXzXxXxXxX      xXxXxXxXxXxXxXxXxX            D.Z.D.P.m.-.o.#.<.b.",
"u.:.0.s.V.j.f.g.f.      . . .       zXzXzXbXbXbX      bXbXbXzXzXzXxXxXxX      xXxXxXxXxXxXxXxXxX            m.N.L.oXU.m.v.D.C.v.",
"{ ,.u.u.0.1.a.p.x.      . . .       zXzXzXbXbXbX      bXbXbXzXzXzXxXxXxX      xXxXxXxXxXxXxXxXxX            g.m.D.|.U.B.b.D.g.-.",
"s :.f.$.( [ @.<.a.                  zXzXzXbXbXbX      bXbXbXzXzXzXxXxXxXxXxXxXxXxXxXxXxXxXxXxXxXxXxXxX      y.b.K.D.d.=.~ +.~ j ",
"u u.n.[ C Z / -.d.                  zXzXzXbXbXbX      bXbXbXzXzXzXxXxXxXxXxXxXxXxXxXxXxXxXxXxXxXxXxXxX      <.m.F.M.u.~ L M j < ",
"L F.U.%.Z C A ;.v.                  zXzXzXbXbXbX      bXbXbXzXzXzXxXxXxXxXxXxXxXxXxXxXxXxXxXxXxXxXxXxX      2.A.A.f.>.~ M i t w ",
"| H.).%.Z N R ;.B.3X9X>X      . . .       bXbXbXbXbXbXbXbXbXzXzXzXxXxXxXxXxXxXxXxXxXxXxXxXxXxXxXxXxXxX      s.s.s.,.=.%.( M j c ",
"0.N.j.+.Y n Y 0.F.>X6X+X      . . .       bXbXbXbXbXbXbXbXbXzXzXzXxXxXxXxXxXxXxXxXxXxXxXxXxXxXxXxXxXxX      u.-.( ^ -.H.G.-.Q +.",
"5.5.0./ W P / y.C.|.+XH.      . . .       bXbXbXbXbXbXbXbXbXzXzXzXxXxXxXxXxXxXxXxXxXxXxXxXxXxXxXxXxXxX      A.+.V Z =.|.+X5.' $.",
"T E W %.-.$.*.p.x.b.m.A.      . . .       zXzXzXzXzXzXzXzXzXzXzXzXxXxXxXxXxXxXxXxXxXxXxXxXxXxXxXxXxXxX      aX1.Z Z { B.n./ B W ",
"Z n E 0.f.g.g.f.0.:.2.D.      . . .       zXzXzXzXzXzXzXzXzXzXzXzXxXxXxXxXxXxXxXxXxXxXxXxXxXxXxXxXxXxX      dXg.[ +.%.s.1.Y c B ",
"Y L +.j.`..X).w.{ ( :.+X      . . .       zXzXzXzXzXzXzXzXzXzXzXzXxXxXxXxXxXxXxXxXxXxXxXxXxXxXxXxXxXxX       XD.m.m.f.9.+.W B Z ",
"L m W p._.*X+Xw.{ [ 3.<X                  zXzXzXzXzXzXzXzXzXzXzXzXzXzXzXxXxXxX                              V.j.b.).A.1.&.*.%.W ",
"p 7 f ' j.XX Xx.<.a.G.8X                  zXzXzXzXzXzXzXzXzXzXzXzXzXzXzXxXxXxX                              C.{ $.V._.x.N. XG.' ",
"L p h [ h.).).g.g.F.#XwX                  zXzXzXzXzXzXzXzXzXzXzXzXzXzXzXxXxXxX                              h.[ ~ p.x.y.z.rX0X9.",
"i.5.9.j.c.x.z.g.B.OX3X5X].p.{ ' ] 7.            zXzXzXzXzXzXxXxXxXxXxXxXxXxXxXxXxXxX      5.' 5.h.!.*XkXeXw.[ *.%./ R M %.8XfX_.",
"q.i.z.Z.E.w.:.*.y.Z.(.F.i.[ I W | i.            zXzXzXzXzXzXxXxXxXxXxXxXxXxXxXxXxXxX      i.8.j.Z.(.$XsX=X| b / / c f a ~  X;XE.",
"n ] 9.E.V.q.E v s T / W L t w z ~ j.            zXzXzXzXzXzXxXxXxXxXxXxXxXxXxXxXxXxX       X(.i.$.P ( E.Z./ f 7 7 f h s K 5.5.K ",
"< J %.z.z.:.Q v i J Y Q L v z L { T. XXX$X      zXzXzXcXcXcXvXvXvXvXvXvXvXvXvXvXvXvX      ;XXX5.J 6 a 5.r.Q a @ $ s K D K _ J 7 ",
"4 n $.p.f.&.{ %.| 7.w.b.b.u.p.f.m.|.#XqX4X      zXzXzXcXcXcXvXvXvXvXvXvXvXvXvXvXvXvX      &X/.| p 7 e _ &./ v O + J { ' Q T F 4 ",
"c Y { 1.w. .+.*.7.9.j.(.|.{.P.D.H.^.`.=X%X      zXzXzXcXcXcXvXvXvXvXvXvXvXvXvXvXvXvX      _.Z.%.L S b Q  .9.Q 4 5 Q 5.{ ' [ ~ v ",
"0.5.5.9.y. .Q v g R %.z.).{.{.b.u.q.s.C.z.      zXzXzXcXcXcXvXvXvXvXvXvXvXvXvXvXvXvX      j.z.r.5.X.-.%.5.z.j.Y M &.&.' ' 0.q.w.",
" Xc.e.f.r.w.| c g Y $.f.P.XX&XF.p.5.9.V.j.      zXzXzXcXcXcXvXvXvXvXvXvXvXvXvXvXvXvX      9.c.C.E.c.i.&.w..X&X0.[ &.| W / p.Z. X",
"tXG.z.V.(.}.F.9.*.9.f.C.}.qX8X XW.j.z.XX^.      zXzXzXcXcXcXvXvXvXvXvXvXvXvXvXvXvXvX      9.C.(.'.E.w.&.t.wXtXl.&.{ ' B ~ i.XXqX",
"tXZ.z._.].*X@X XG.H.C.N.!.$X=X            xXxXxXzXzXzXcXcXcXvXvXvXvXvXvXvXvXvXvXvXvX      0.c.E.C.j.i.h.!.qX;Xc.9.&.{ W [ s._.;X",
"E.q.p.|.*X+XXX3X2X=X).9.*.i.c.            xXxXxXzXzXzXcXcXcXvXvXvXvXvXvXvXvXvXvXvXvX      u.r...{ | p.}.*X(.z.l.p.y.9.0.y.p.l.Z.",
"*.' &.).oXA.G.@X*X1XC.~ J _ 9.            xXxXxXzXzXzXcXcXcXvXvXvXvXvXvXvXvXvXvXvXvX      q.5.K n _ h.4X0X7.{ w.l.u.s.b.j.9.:.0.",
"G k R b.F.1.&.0.j.C.y.c r L %.      xXxXxXzXzXzXzXzXzXxXxXxX      cXcXcXcXcXcXxXxXxX            g I i.3X$XR v %.x.j.l.Z.N.0.O.R ",
"p e c 9.p.W V R | f.9.b w L %.      xXxXxXzXzXzXzXzXzXxXxXxX      cXcXcXcXcXcXxXxXxX            Z Q 9._.V.n f $.w.q.9.z.h.&.Q n ",
"z < y $.$.g e g ] V.C./ L +.:.      xXxXxXzXzXzXzXzXzXxXxXxX      cXcXcXcXcXcXxXxXxX            j./ P *.&.c z ' { L Y { -.| Q x ",
"Y I / 0.%.p e V *.G.H.1.-.y.u.                  zXzXzXzXzXzX      xXxXxXxXxXxXxXxXxXxXxXxX      @X&.Y ' { ~ / | { Y L Y Q  .| Y ",
":..X2X_.w.~ ~ b.H.N.x.B.G.F.g.                  zXzXzXzXzXzX      xXxXxXxXxXxXxXxXxXxXxXxX      <Xv.-. . .j.z.g.s.s.-.V W f.b.9.",
"x.uXlX;XG.1.u.{.|.u.2.N.G.V.p.                  zXzXzXzXzXzX      xXxXxXxXxXxXxXxXxXxXxXxX      qX).f.%.:.G.oX^.{.+XB.~ ! H.+Xg.",
"g.#X8X5X=X_.H.{.A.$.( *.0.5.| T M d f f x                                     zXzXzXxXxXxX      *X_.N.&.*.z.H.@X7X9X#Xu.y..XXXx.",
"N.L..X*X@X|.|.{.A.+.T ^ / W Y V B c n v z                                     zXzXzXxXxXxX      @X|.F.9.&.1.b..X5XeX2XZ.C.<X#XB.",
"V.b.z.F.F.N.B.OXI.:.~ Y P z p u v P W P L                                     zXzXzXxXxXxX      XX@X{.s.-.O.*.b.I..X}.D.H.3X3X{.",
"D.1.=.9.2.0.x.OXOXs.-.@.~ M u t p R | ' [ O./ c p k L %.i.s.b.Z.!.E.V.~.                  3 Z v.U.#XXXx.:.^ ( :.g.F._.}.@X2X3X+X",
"P.+.T { %.=.a.OX,XD.N.b.u.' L v v Q %.:.y.w.{ B x W ;.u.1.W { ).&XZ.w.)                   J { N..X=X1XD.a.+.Y +.:.i.H..X@X.X.X#X",
"H.! B [ %.-.i.oX:XP.G.Y.U.i.$.Y W | 9.w.e.9.%.Z Q ;.u.i.%.p B C.&Xb.{ 6                   0.s.H.@X3X1X|.z.$.( $.y.B.H. X|.F.F.oX",
"b.T L -.j.b.F.P.P.M.P.3XqX_.j.5.*.j.h.9.{ _ R { -.y.f.p.[ 0 w 9.V.9.J @ # P 9.x.Z.H.}.}. X_. X*X1X2X&X}.V.w.1.b.H..X#X+XF.<.:.F.",
"z.Q ~ :.N.F.H.H.F.B.H.5XeX#XZ.j.j.Z.E.0.{ I Y 0.u.:.-.5.Q 8 w { q. .Y * 4 R 5.i.V.}.*X4X5X5X2X*X@X.X}.H.C.s.2.N.{.1X>X|.g.[ +.m.",
"b.%.O.p.b.m.F.H.H.B.H.1X5X.X(.z.x.!.!.x.0.{ ..j.w.J b Q / B M Q [  .{ | %.0.i.w.j.H.@X7XeX7X2X}.B.x.x.B.b.u.9.u.N..X&XH.a.( @.J.",
"H.u.0.s.g.s.g.F.A.b.m..X&X`.~.l.f.W.~.b.r.0.w._.l.J a Q { +.( P W { 7.j.z.j.i.9.0.x.F..X*X=XXXf.-.&.-.1.y.<.$.@.*.G.(.N.1.( #.K.",
"+XF.g.p.u.*.1.m.A.d.x.). X^.E.9.0.j.N.z.j.p.E.<X@X*.Q  .0.j.0.Y B ' 5.l.E.r.5.&.%.*.0.y.f.V.f.[ V B Z { | ^ R N T a.N.f.;./ +.I.",
"*XU.D.n.d.1.<.1.1.:.3.G.[..XF.7.{ 0.p.e.q.j.(.;X2XE.0.*.y.x.w.L B ~ &.f.z.h.w.7.&.} ( [ &.9.=.n e u c _ [ ( T u B i.B.s.-.^ $.P.",
"). X+XoXU.F.y.^ l Z &..X5X2X(.&.Q ~ ' E { w.C.|.@XXX^.9.%.&.{ B c E | &.w.c.R.!.w._ H ' { %.E r > 1 g I { %.( c W (.*XF.1.W +.B."
};
