/* XPM */
static char *result[] = {
/* columns rows colors chars-per-pixel */
"64 64 26 1 ",
"  c #21110D",
". c #503625",
"X c #365519",
"o c #3A5619",
"O c #3D5C19",
"+ c #3F6019",
"@ c #415F19",
"# c #436219",
"$ c #486719",
"% c #496819",
"& c #755338",
"* c #9D7658",
"= c #548E00",
"- c #579300",
"; c #5B9500",
": c #5D9900",
"> c #619700",
", c #639D00",
"< c #689F00",
"1 c #66A100",
"2 c #6BA400",
"3 c #6EA900",
"4 c #70A700",
"5 c #72AC00",
"6 c #75B100",
"7 c #79B400",
/* pixels */
"35566311::166631,,,,,22555522221,:,,24442<,<,,,--->,112115633,11",
",3366       651:,4522       25521:;,2       2:====;12       3311",
":355 &*****& 2,;:454 &*****& 5552;-: &*****& ;;;:-:1 &*****& 33:",
":35 &**&&&**& :::22 &**&&&**& 75,== &**&&&**& ,2321 &**&&&**& 1,",
",33 &**&&&**& ;:,<, &**&&&**& 552;- &**&&&**& ,4321 &**&&&**& 31",
"133 .&*****&. -,<,< .&*****&. 23522 .&*****&. 2531: .&*****&. 61",
"335  .&&&&&.  -,2<2  .&&&&&.         .&&&&&.         .&&&&&.  63",
"6363         =;,2445         *******         *******         776",
"7652 ..&.&&. ;>,2254 ..&.&&. .&&...& ..&.&&. .&&...& ..&.&&. 777",
"6532 .&***&. <,,<542 .&***&. &....&& .&***&. &....&& .&***&. 777",
"6532 . *** . 2,,,52, . *** . ...&&.& . *** . ...&&.& . *** . 676",
"542# . *** . #2,,22o . *** .         . *** .         . *** . +36",
"332# . *** . @4,,<,X . *** . O22355# . *** . #35376# . *** . +13",
"22###  ***  $$@,>>ooo  ***  O+O1,,OO@  ***  ###336#+#  ***  +++1",
"1224@@ *** %%54<,;>;O+ *** Oo1,:;;,>@@ *** ##5533563+# *** O+,,1",
",,122@ *** %752<>;;,2O *** X=-;;:,,,,# *** @235536633+ *** +,,,,",
"1,:22, *** 77531:;,24< *** ;=-;,,,1,12 *** 22223366336 *** 1:111",
"2,123       663,,122<       ,,1332,,,       321135666       1:11",
"2112 &*****& 661,253 &*****& 225521, &*****& 2,:1366 &*****& :13",
"212 &**&&&**& 53235 &**&&&**& 25311 &**&&&**& :::36 &**&&&**& 33",
",12 &**&&&**& 53357 &**&&&**& <5412 &**&&&**& ;;:33 &**&&&**& 31",
";13 .&*****&. 53555 .&*****&. 454<2 .&*****&. -=-13 .&*****&. ::",
";13  .&&&&&.  32455  .&&&&&.         .&&&&&.         .&&&&&.  :-",
",331         2112455         *******         *******         -:-",
"1351 ..&.&&. 1,12555 ..&.&&. .&&...& ..&.&&. .&&...& ..&.&&. :::",
"1331 .&***&. 1:1,225 .&***&. &....&& .&***&. &....&& .&***&. 1:1",
"111, . *** . 3221122 . *** . ...&&.& . *** . ...&&.& . *** . 111",
":1:+ . *** . +533,,O . *** .         . *** .         . *** . +::",
":,,+ . *** . %773,:O . *** . #24322# . *** . O2,113+ . *** . +-:",
",:O##  ***  %%%53,oOo  ***  #@@221##@  ***  O@@213+$%  ***  +++:",
":::2#% *** #%7652,:,oX *** ##<<55222@@ *** @@23,,,13++ *** ++11:",
":;:,2# *** %7521,:,,,X *** #2,<252522@ *** #2<,:--,36% *** +3331",
":;>,25 *** 7621::,221, *** 22,,2554542 *** 542,;:;2675 *** 2276<",
"22224       5211,2225       4<2455574       5<,<24677       2675",
"2223 &*****& ,,,1245 &*****& 1<44445 &*****& 2<42557 &*****& 564",
",,2 &**&&&**& -:,23 &**&&&**& <22<, &**&&&**& 521,< &**&&&**& <,",
"->, &**&&&**& ::,25 &**&&&**& 221>, &**&&&**& 5<,=; &**&&&**& ,=",
"=,1 .&*****&. 22356 .&*****&. 252,, .&*****&. 4,;;; .&*****&. >;",
"::,2 .&&&&&. 633355  .&&&&&.         .&&&&&.         .&&&&&.  ,;",
"2212         3522225         *******         *******         222",
"5222 ..&.&&. 5552125 ..&.&&. .&&...& ..&.&&. .&&...& ..&.&&. 245",
"7525 .&&&.&. 7754225 .&&&.&. &....&& .&&&.&. &....&& .&&&.&. 257",
"7225 .&&&.&. 5555356 .&&&.&. ...&&.& .&&&.&. ...&&.& .&&&.&. 255",
"422# .&.&&&. @45523# .&.&&&.         .&.&&&.         .&.&&&. @25",
"1,1# .. &&.. O22545# .. &&.. o,45,>O .. &&.. @2,,,2$ .. &&.. @12",
",:O## . . . oO@355#$$ . . . oo@55,@oo . . . @@@;:,### . . . #@O,",
";-:2@OOO@#+oo,,32457$$#@O@@O@,255<,>O@O@OOOO@22,:,25#ooO@@O##1,:",
";--11O;;,33O:1122,,35$5,255#5<135<244#2,;;;O22352,,,1O:,,,,O1,,:",
",,,11;-:23321311,::,4552257551<242255531:;::125651,,1,,,1,:,,1,,",
"15652       333,>--:,       123532455       1256631,1       ,222",
"3777 &*****& 31:;--; &*****& 5552225 &*****& 1366521 &*****& 353",
"256 &**&&&**& 1::;; &**&&&**& 522,2 &**&&&**& 15553 &**&&&**& 52",
"333 &**&&&**& ,:,:: &**&&&**& 52<,2 &**&&&**& 13553 &**&&&**& 63",
"333 .&*****&. ;:;,, .&*****&. 52224 .&*****&. :3565 .&*****&. 73",
"3112 .&&&&&. :;-;,,  .&&&&&.         .&&&&&.         .&&&&&.  65",
"31,1         1::;,21         *******         *******         636",
"31:1 ..&.&&. 31:,,22 ..&.&&. .&&...& ..&.&&. .&&...& ..&.&&. 335",
"3::1 .&&&.&. 531222< .&&&.&. &....&& .&&&.&. &....&& .&&&.&. 113",
"3,,1 .&&&.&. 6322541 .&&&.&. ...&&.& .&&&.&. ...&&.& .&&&.&. :13",
"3,1+ .&.&&&. #33245# .&.&&&.         .&.&&&.         .&.&&&. +13",
"311+ .. &&.. #52245# .. &&.. O,,,<2@ .. &&.. %3311++ .. &&.. +13",
"53+++ . . . ##@222#@# . . . @#+::,@@@ . . . +#+1::++X . . . +++3",
"6363+++++O+##55<,222@##$##@O#22:,,<2$@@@OOOO+21:;:-,+++X+++++1:3",
"33635#21::2#7542,,,,,@35555#,2,:;,<<2@442,,O,1:;--::1+1:136+1:13"
};
