/* XPM */
static char *result[] = {
/* columns rows colors chars-per-pixel */
"64 64 231 2 ",
"   c #19251C",
".  c #1A2918",
"X  c #27291B",
"o  c #332A1E",
"O  c #23331B",
"+  c #273718",
"@  c #2C3C1A",
"#  c #3A351C",
"$  c #040623",
"%  c #0E0524",
"&  c #0C0B22",
"*  c #140524",
"=  c #1B0626",
"-  c #110A23",
";  c #1D0B26",
":  c #1B062A",
">  c #180B2A",
",  c #0C1322",
"<  c #1A1621",
"1  c #280827",
"2  c #240A2A",
"3  c #370729",
"4  c #261725",
"5  c #3D1627",
"6  c #1F2021",
"7  c #362625",
"8  c #293420",
"9  c #462A1F",
"0  c #47391A",
"q  c #470929",
"w  c #590C2F",
"e  c #49182A",
"r  c #55112C",
"t  c #57182C",
"y  c #4A1635",
"u  c #551837",
"i  c #6A1727",
"p  c #63132C",
"a  c #4A2725",
"s  c #4B362A",
"d  c #61232C",
"f  c #772929",
"g  c #324F0F",
"h  c #395B0E",
"j  c #2A4513",
"k  c #2E4913",
"l  c #334E13",
"z  c #384A17",
"x  c #355312",
"c  c #3B5413",
"v  c #3C5910",
"b  c #3D660B",
"n  c #3E6110",
"m  c #484519",
"M  c #435B15",
"N  c #485815",
"B  c #71481C",
"V  c #466A0D",
"C  c #4C7A06",
"Z  c #4B730B",
"A  c #4D7A09",
"S  c #53740C",
"D  c #537D09",
"F  c #567C09",
"G  c #4A6413",
"H  c #486614",
"J  c #517411",
"K  c #587D10",
"L  c #70552E",
"P  c #6B324E",
"I  c #74314E",
"U  c #7B3754",
"Y  c #89172D",
"T  c #94122F",
"R  c #8C0C32",
"E  c #881630",
"W  c #AC192D",
"Q  c #AD0C33",
"!  c #91302E",
"~  c #8B2B31",
"^  c #962933",
"/  c #AB2533",
"(  c #BA2836",
")  c #AE3336",
"_  c #D11937",
"`  c #EA0D39",
"'  c #F30D35",
"]  c #EC133A",
"[  c #E71A3B",
"{  c #F31C33",
"}  c #F81837",
"|  c #CB2533",
" . c #C92832",
".. c #D42733",
"X. c #C53734",
"o. c #D13B34",
"O. c #FB272F",
"+. c #EA2536",
"@. c #EB2B3D",
"#. c #F52432",
"$. c #FB2434",
"%. c #F42A32",
"&. c #FC2A34",
"*. c #FF283A",
"=. c #EC383A",
"-. c #FE3535",
";. c #FE3C36",
":. c #F73A38",
">. c #874E1F",
",. c #8C7B10",
"<. c #B6711E",
"1. c #8A442C",
"2. c #8E592C",
"3. c #AE4829",
"4. c #916235",
"5. c #FD7E1F",
"6. c #DA4B2F",
"7. c #C94636",
"8. c #FB452C",
"9. c #FE4336",
"0. c #F64E33",
"q. c #FC4C36",
"w. c #FF443A",
"e. c #F64B3D",
"r. c #FE4D39",
"t. c #FD5336",
"y. c #FD5B36",
"u. c #F4573B",
"i. c #FE5339",
"p. c #FE5B39",
"a. c #D9612E",
"s. c #FF6E23",
"d. c #FF7A25",
"f. c #FF742E",
"g. c #FE7A2C",
"h. c #E76432",
"j. c #FE6335",
"k. c #F76A35",
"l. c #FE6B35",
"z. c #FF6339",
"x. c #FF6B39",
"c. c #FC7435",
"v. c #FF7A34",
"b. c #A21942",
"n. c #973657",
"m. c #B4394B",
"M. c #AD3151",
"N. c #DC1442",
"B. c #D61A46",
"V. c #DB1D44",
"C. c #E00F41",
"Z. c #E61841",
"A. c #D8264A",
"S. c #DD364F",
"D. c #D32B51",
"F. c #CB395C",
"G. c #D63456",
"H. c #DC3B57",
"J. c #D33C5B",
"K. c #E42843",
"L. c #E13944",
"P. c #FE3943",
"I. c #E93553",
"U. c #B7566E",
"Y. c #FD4C49",
"T. c #EC5249",
"R. c #F6514D",
"E. c #F64C54",
"W. c #E45151",
"Q. c #CE794F",
"!. c #F97844",
"~. c #D34662",
"^. c #D54965",
"/. c #D2536E",
"(. c #CC6379",
"). c #E36379",
"_. c #4C8403",
"`. c #548405",
"'. c #558D01",
"]. c #5C8C06",
"[. c #568309",
"{. c #5C850B",
"}. c #569300",
"|. c #5B9500",
" X c #5E9A00",
".X c #628C0A",
"XX c #629503",
"oX c #639D00",
"OX c #699D02",
"+X c #619008",
"@X c #66A200",
"#X c #6AA400",
"$X c #6DAA00",
"%X c #70A700",
"&X c #72AC00",
"*X c #6FB000",
"=X c #75B100",
"-X c #79B300",
";X c #7EBA00",
":X c #80BC00",
">X c #BF8E3D",
",X c #FF891E",
"<X c #F78A24",
"1X c #FF842D",
"2X c #FF8B2B",
"3X c #FE9423",
"4X c #F99626",
"5X c #FE8737",
"6X c #FF943B",
"7X c #FFA629",
"8X c #E2A137",
"9X c #FFA935",
"0X c #FFBA39",
"qX c #FFC33B",
"wX c #8F854F",
"eX c #FF834A",
"rX c #F69A47",
"tX c #FFA747",
"yX c #FEB745",
"uX c #F1AB50",
"iX c #FEB85A",
"pX c #FFBE68",
"aX c #FDC54C",
"sX c #FEDA4D",
"dX c #FDCA54",
"fX c #FED65A",
"gX c #FFDC63",
"hX c #F8D46E",
"jX c #F9DA69",
"kX c #FFE26B",
"lX c #FFEA77",
/* pixels */
"$X&X&X=X=X$X$XoXoX X@X=X-X&X$X@X@XoX@XoXoX#X#X&X&X&X$X#X#X#X#XoXoXXXoXoX#X#X&X%X#XOXoXOXoXoXXX|.}.}.|.@X@X#X@X@X@X&X=X$X$X@X@X$X",
"oX$X$X=X$X#X#X$X$X$X#X=X=X&X@X XXX#X&X#X#X#X%X$X&X#X#X#X#X&X&X#X@X X|.oX#X#X%X#X&X&X&X#X#X X'.}.}.}.|.oX@X#X$X=X&X=X=X$X#X#X$X X",
" X#X*X=X*X$X$X=X*X$X#X$X&X#XoX|.XX&X&X&X#X&X#X%X#X#X@X#X&X&X&X&X#X|.}. XoXoXoX&X&X=X&X&X#X|.|. X X|.|.@X@X#X#X&X=X$X$X&X$X$X$X X",
"oX#X$X=X=X$X$X=X*X@X@X@XoXoXXX|. XOX#X#X%X#X#X#X#X@X#X&X-X-X&X&X@X'.'.|.XX XXX&X=X&X%X#XoX|.XX#X$X@X@X@X@X@X#X$X$X$X$X$X$X$X$X X",
"oX$X*X=X=X*X=X=X$X@XXX X|.|.|.XXoXoXOX#X&X#X#XOXoXoX@X$X&X=X&X&X@X|.|.|.XX|.oX$X&X&X%X#XOXoXoX&X$X$X@X@X@X@XoX@X$X#X$X$X$X=X$X X",
"@X$X$X*X=X=X=X=X$X#XoX|.'.'.|.oX#XoXoX%X&X$X#X#X@X X|.@X@X#X#X&X&X#X#X#X@X X X@X#X&X$X$X#X#X#X&X#X@X|. X XoX@X@X#X$X&X$X*X*X$X$X",
"$X$X*X=X=X=X*X=X&X#XoX|.'.'.}.oX#XOXOX&X%X&X%XOX#X X|.oX@X#X#X%X&X&X&X#X#XXXoX#X%X#X#X%X&X#X#X$X@X X|.}.|.XX@XoX#X$X*X=X-X-X=X$X",
"*X=X&X$X$X#X$X&X=X=X&X@XXX'.|.oX#X#X$X&X&X%X#X%X#XoX#X#X#X#X#X#X$X&X&X#X#X#X#X#X#X&X&X%X#XoX@X#X@XoX}.}.}.}. X@X$X=X-X-X-X;X-X=X",
"=X=X&X#X@X@X#X&X=X-X=X$X@XXX XoX#X$X&X%X%X$X&X&X&X$X$X&X&X#X#XOX#X%X%X%XOX%X%X%X%X&X&X&X$X#X#X@XoX}.}.}.}.|. X@X$X$X-X-X:X-X:X-X",
"=X&X$X#X@X@X@X$X=X-X-X=X$XoXoXoXOX$X%X#XOX#X%X&X&X$X&X&X&X#X#X#X#X&X&X%X%X&X&XOX%X&X-X:X;X=X$XXX|.}.'.}.}. X#X@X#X$X=X-X-X-X-X-X",
"=X&X$X#X@XoX@X&X=X-X-X-X=X#XoXoX@X&X$XXXoX#X%X&X&X&X&X&X&X@X#X#X%X&X=X&X%X&X%X#X%X=X:X:X;X-X$X@X X|.|.|. X@X@X@X#X#X$X&X&X&X&X=X",
"&X&X#X#X#X@X#X$X&X&X&X=X=X&XOXoXXX#X#X|.|.OX%X&X&X$X#X@X@XoX#X#X&X-X:X&X&X&X&X&X&X-X-X&X&X&X$X#X#X$X#X@X@X XoX@X#X$X#X#X$X#X&X&X",
"#X&X#X$X#X@X#X$X&X#X%X=X=X&X%XXXoX#XXX}.'.OX%XOXM = : : = M oX#X%X&X&X&X#X&X&X=X=X-X-X$X#X%X$X$X$X-X=X#X@X@X@X#X@X@XoX@X#XOX@X$X",
"#X#X#X&X$X#X#X#X#X#X#X&X-X&X%XOXXXXX X}.XXOX%XOXN 6 * * < c ].oXOXoXoXoX#X#X%X&X&X-X&X%X%X&X&X$X$X=X=X#X#X#X#X$X#X@XXXoXoXoX@X#X",
"@X#X#X%X#X@XoX#X#X@X%X=X-X&X%XoX X|.|.XXXXoXOX%X.XN N M M c c V `.|. XXXoX#X&X%X&X=X&X%X#X&X&X$X$X=X=X#X#X$X=X$X#XoX XoXoXoXoX@X",
"oXoXoX#X#X@XXXoX#X#X&X:X-X&X#XOXXX|.XXoX#XOX%X&X=X&X%X|._.z ; X S oXoXoXOX$X&X=X=X=X&X#X#X$X&X&X$X=X=X$X$X$X=X=X#X X XoX@XoXoXoX",
"@XoX X#X#X@X XoX@X#X&X-X-X&X#X@XoX|.XX#X%XOX#X&X=X=X#X|.b O * - c D C Z [.oX&X=X-X&X&X#X#X#X#X#X$X=X=X$X$X*X*X=X#X@X X@X@X@XoX@X",
"#XoX@X#X#X@X@X@XoX#X#X$X*X-X*XoXXX@X#X#XOXoXoXoX#X#XXXc   $ $ % X X X   k ].#X=X-X&X$X&X$X#X@X@X$X*X=X=X*X*X$X$X$X$X@X X X XoX$X",
"#X@X@X#X$X#X@X@X#X@X@X#X$X-X=XoX@X#X$X&X#XOXXXXX@XoXJ 7 1 1 1 2 = * 2 1 o S @X&X#X#X$X&X=X@X@X X@X*X=X*X*X$X$X$X$X*X$X@X@X X@X$X",
"#X@X@X$X$X#X#X$X#X#X#X#X$X=X*X$X@X&X&X&X&XXXV g x x m f ^ ^ Y i 1 : w Y f 0 v c x J #X=X$X@X X|. X$X*X=X*X$X$X*X$X*X$X$X*X$X$X$X",
"@X@X@X$X#X@X$X@X$X@X#X#X$X&X&X#X&X&X=X=X&X.X# % $ & a 3.i.9.+.W 3 1 Y +. .t & $ * @ {.&X$XoX X}. X$X*X$X@X$X$X@X$X*X*X*X@X*X$X X",
" X@X$X X@X@X@X@X@X$X#X#X&X&X&X&X%X&X&X#X].N a y y t ~ a.c.i.*.Q 3 = Y 9.:.~ e e r a N F |.|.}.'.}.@X$X@X X@X@X$X*X*X@X@X X@X X X",
"}.$X$X@X X XoX@X$X$X$X$X$X$X#X#X%X&X&XS O 7 I M.m.7.a.4X2Xy.Z.Q 1 & f y.z.6.X.o. .Y a O Z oXXXXX X#X$X@X X X$X$X$X@X*X X X X X}.",
" X$X*X@X@X X X@X#X=X-X&X&X#X@X@X#X&XOXz > u M.W.E.i.f.3X3Xk.S.b.q 4 1.c.v.x.z.q.;...p = l XX&X%X$X-X=X@X@X@X@X*X$X$X@X X X X X}.",
"@X$X*X@X X X@X@X$X-X-X*X$X@X@X@X+XZ N s I n.F.I.P.;.t.d.1X5X!.Q.wXwX>X4X2Xc.x.p.i.:.( Y a x S XX=X-X=X@X X@X@X$X@X@X@X X@X X}. X",
"@X$X$XoX X X X@X$X=X=X*X#X@XoXoXC O 2 P U.^.G.V.[ #.-.q.j.6XyXdXkXhXaX7X3Xg.x.j.p.r.;...Y ; + F #X*X$X@X X$X@X@X@X X@X*X*X@X X@X",
"#X@X@X X@X X@X#X$X*X&X$X#X$X@X@XC   2 U (.).H.A.A.@.@.:.0.!.rXiXhXpXrX2Xd.f.x.z.i.r.w.;.( p 9 F $X#X$X@X@X*X$XoX X X@X*X*X@X@X@X",
" X X@X@X@X@X@X#X#X#X$X$X$X*X=X$X_.. > U (.).^.J.S.H.S.K.S.L.L.T.E.Y.r.t.y.z.z.r.;.;.i.i.=...3..X@X$X#X$X*X;X-X$X X X@X*X$X@X X X",
" XXXoX@X#X#X#X#X$X@X$X$X*X=X-X=XZ X 3 U /./.^.~.~.~.F.D.V.B.B.N.` ' } &.;.t.t.9.-.;.i.p.r.;.6.,.oX#X#X*X=X;X-X#X@X@X@X$X@X X X X",
" XoX@X#X&X=X$X#X@XoX@X=X-X=X].H 0 i T M.J.^.~.^.^.~.J.D.B.N.C.` ' ' } #.&.;.9.r.t.t.t.i.i.9.6.B h A @X$X&X=X&X$X$X$X@X#X@XoX X X",
" X XoX@X&X=X&X#X@X@X@X*X;X$Xn < q Q ] Z.A.D.J.~.~.~.J.D.B.Z.] ] #.#.#.#.#.&.;.t.l.l.y.q.r.t.7.e < x  X$X&X$X$X#X$X#X$X@X@X@X@X@X",
" X|.|.@X#X&X&X#X@X@X$X-X-X@Xl % w _ } } Z.V.G.J.J.J.S.A...] } } #.#.#.#.&.-.;.t.x.j.y.r.r.q.( t % j ].&X=X=X$X@X@X#X&X#X$X$X*XoX",
" X|.XXoX#X$X$X#X#X$X&X-X&XoXl - r | *.} ] N.A.D.A.@.+.+.[ #.{ { { #.O.&.-.9.i.t.i.p.p.i.r.;. .r & k  X=X-X&X#XoXoX#X$X#X#X-X-X#X",
"#X#X#X#X&X$X$X#X$X=X=X=X&XoXl - u  .-.*.} ` [ V.+.#.#.O.O.%.%.%.%.%.O.-.9.t.p.i.0.t.u.t.r.-.| r - c #X;X=X#XoX#X@XoXoXXX@X-X-X$X",
"#X#X#X%X%X#X@X#X#X$X$X$X#X+Xk % t 7.r.;.$.} [ [ #.#.O.-.;.;.:.;.8.q.t.y.y.t.p.y.y.j.y.t.r.-...w % x #X-X&X#X|.oXoX X|.|.XX&X=X%X",
"XXoX#X%X#X#XoXXX X XoXoXoX'.j * t 7.p.r.-.%.#.{ $.$.-.q.t.t.i.p.j.k.g.1Xf.y.q.y.l.l.u.q.9.-.| r % k ].%X&XoX|.}.|.|.|.|. X#X#XXX",
"|.XX@X#X#X#XoX|.|. XXXoXoX|.b O a ! 6.0.;.;.8.8.8.t.!.!.!.eXv.v.1X1X1X1Xc.t.0.y.l.x.t.9.=...^ a + h ].@X#XoX|.'.'.|.XXXXoXoXoX|.",
"}. X@X#X#X#XoX@X@X#X#X#X#X@X|.[.G s d ) 0.y.s.5.2X6XrXpXhXpXtXtX7X3X1Xx.y.t.e.p.z.p.9.:.W p 9 N A `.|.oXOXoX X'.'.oX@XoXoX X|.}.",
" XXX@X@X#XoX@X@XOX#X$X$X&X&X$X$X[.O ; ~ u.v.4X7X0XaXfXkXkXgXaX0X7X3Xd.p.i.e.q.t.p.r.;.%.Y ; . D  XXX XoXoX#XoX|.|.oX#XoXoXoXoX X",
"@X@X#X#X#XoXoX X|.oX#X#X$X&X&X#X[.  : 1.d.9XaXdXfXjXgXfXaXyXtX6X5Xg.j.t.t.y.j.j.y.r.;.&.Y =   D @X#X@XoX#X#X#XXX XoXOXoXoX#X#X#X",
"&X$X#X#X#X#XoXXX|.oX@X#X$X&X&X&XA   4 >.3X0XfXlXlXlXfX0X7X<Xv.x.x.p.t.r.t.x.c.j.t.w.;.#.E 1   D %X%X#XOX#X&X&XOX@XoXoXoXoX#X&X&X",
"-X&X#X$X&X&X$X#X@X#X#X$X&X-X-X&X{.l o B <.8XfXlXlXkXdX9X,Xd.l.y.t.i.q.T.u.z.j.t.9.%...W i o l ].&X%X#XOX%X-X-X%XOX@XoX XoX#X&X=X",
"-X#X%X&X&X=X&X&X$X&X$X#X$X&X=X&X#X+XF m 7 4.uXfXsXqX9X2Xg.l.z.i.i.i.T.W.R.Y.9.-.*._ E q 0 Z +XOX%X#X#X#X%X=X=X%X#X@XoXoX@X#X&X=X",
"%X#X#X&X&X&X&X=X=X&X&X#X@X#X%X%X$X#X#XH , 7 >XyX9X4X<Xg.l.j.y.t.r.i.T.W.W.=.%.{ ] Q q , h @X#X#XOXoX#X&X&X&X#X#X#X#X#X@X#X#X#X%X",
"@X@X@X=X&X#X$X=X&X=X$XoXXX@X#X$X&X%X&X+XH m L 4.2.>.3.h.j.y.9.Y.Y.Y.E.Y.L./ E R R i 0 h `.#X#XXXXXXX#X=X-X#XoX#X#X#X#X#X#X#X@X@X",
" X|.oX#X$X#X@X#X#X&X#X X|.XXoX#X&X&X&X-X-XK # 4 > > d a.z.r.-.P.E.E.Y.;.| p * : 1 o Z @X#X@XoX X XoX#X=X&XoX|.#X$X$X#X$X$X#X@XXX",
"|.|. X@X#XoX XoXoX#X#X X|. X@X$X#X%X$X=X-X.X@ , & , 5 ! 7.o. .( M.m.X.| T 5 , , , + A @X#X#X#XoX XoX#X&X$XXX|.@X#X#X#X#X#XoXoX X",
" X}.}.@X@X|.|. XoX$X$X@X X@X@X#X#XXXOX#XXXK M @ + 8 7 e t r r u y y u r e 7 + + @ x V [.XX#X#X&X#X@XXX#XoX X XoX@XXXoXoX#X@XoX X",
" XoXoX#X@X|.|.|.@X$X$X@X@X@X$X@XoX X|.].{.K J H G G z 4 % % - & - - & > < z M H H H Z A |.#X&X=X&X@X X@X@XoXoX@X@XoXoXoXoX@X X X",
"@X&X=X$X@X@X@X$X$X#X$X$X*X$X$XoX X}.}.|.].].+X.X.X.XJ z O 8 O O O O O 8 z J {.{.[.[.[.{.|.@X&X-X=X#X@X@X@X#X#X#X@X#X@X XoX$X#X#X",
"$X-X;X&X$X#X@X&X=X$X@X#X$X#X@X X|.|.}.|. XOX#X#X&X=X@X[.H J H M M M G K .XOX#XOX@XoX X X X@X$X=X=X&X#X@X@X&X$X$X&X$X$XoX@X$X=X$X",
"#X&X=X-X=X&X$X&X$X@XoX@X@X@X@XoX X X|.|. XoX@X#X&X*X$X.X{.K J H G H J {.OX@X@X#X@X@X X|.|.oX@X*X&X&X$X@X@X$X$X*X-X-X=X@X@X*X$X$X",
"$X$X=X=X&X$X*X$X*X@X@X X@X@X X X X X X X X XoX#X$X#X@X#X#X&X&X#X#XOX@X&X&X#X@X#X#XoX X}.}.}.@X$X&X&X#X#X@X@X$X*X=X-X=X$X$X=X=X#X",
"$X#X#X$X$X$X$X*X*X@X X XoX|.|.|. XoXoXXX X X XoXoX X X@X#X&X&X#X#X#X%X&X-X&X&X$X@XoX}.'.}.}. X#X&X&X=X#X@X@X@X$X$X&X&X$X$X=X-X$X",
"$X@X@X@X@X#X#X=X*X@XoXoXoX X}. X XXX@XoX@XoXoX X X X X@X#X#X$X$X%X%X%X&X$X=X=X$X@XoX X}.}.}.oX#X&X=X&X#X@XoXoX@X#X$X$X=X&X=X=X=X",
"*X@XoX@X@X@X#X*X*X*X$X$X$X@X X X|.oX@X@X#X#X@X X X X@X#X@XoX@X$X&X%X#XoXOX$X$X$X*X@XoX X X X@X$X&X=X=X$X$XoX X@X@X#X$X&X&X=X$X=X",
"*X X X@X@X@X@X*X*X$X$X*X$X#X@X XXX@X#X#XOX#X@XXXoX@X#X#X@X|. X$X=X#X@X|.|.#X#X&X$X#X#X@X@X@X#X$X=X=X=X*X$X@X XoX#X$X$X&X$X$X$X=X",
"$XoX X@X#X#X$X*X*X$X*X=X-X$X#X#X#X#X#X#XoXoXoXoX@X#X#X#X@X}.|.@X%X#XXX'.'.|.#X#X$X&X&X&X&X&X&X&X=X=X&X$X$X$X@X$X$X=X=X=X$X@X@X$X",
"$X X X@X$X$X$X$X$X$X$X=X-X&X$X#X#X&X%X#XoXoXXX#X@X@X@X#XoX|.|.@X#XOXoX}.}.XXOX#X$X&X&X=X=X=X=X=X&X&X$X*X$X@X@X$X*X=X*X&X$X@X@X$X",
"#X@XoX$X$X$X$X$X$X$X$X=X=X&X&X$X#X%X&X#X#XoX#X#X#X X|.oXoX X XoXoXOXoXoX@X#X#X#X#X&X&X=X-X-X=X$X$X#X$X$X$X@X$X@X#X=X&X$X@X X@X$X",
"*X$X@X$X$X@X$X*X$X#X#X&X&X&X%X%X#X%X%X$X#X@X#X&X$X X|.oX@X@XoXoXoXoX#X#X#X#X#X#X#X#X$X&X&X=X&X#X@X@X@X@X@X@X@X@X@X$X#X$X@X@X X*X",
"=X#X$X@X$X@X@X$X$X#X$X&X&X&X%X#X#X#X$X#X#X#X%X=X&X#XoXOX#X#X@X XXXoX#X#X%X#X#XOXoX#X#X#X#X$X#X@X X X X@X@XoXoX XoX$X#X$X@X@X X*X",
"=X*X$X$X@X@X@X$X$X@X#X$X&X&X#X#XoX#X#X#X#X#X&X&X=X%X#X@X#X#X#X X X@XOX#X%X#X#XOXOXoXoX@X#X#X@X X|.|. X@X@XoXoX}. X@X$X$X@X X@X*X",
"$X$X$X*X*X*X@X X X XoX&X-X&X&XOXoXoXoXoXOX#X$X&X&X&X%X#XoX#XoX X XoXoXOX#X#X%X&X#XoXoXoXoXoXoX|.}.}.|.oX@X@XoX X@X$X*X*X@X@X X*X"
};
