/* XPM */
static char *result[] = {
/* columns rows colors chars-per-pixel */
"64 64 241 2 ",
"   c #030123",
".  c #0C0324",
"X  c #0E0529",
"o  c #0E0828",
"O  c #150625",
"+  c #180625",
"@  c #190826",
"#  c #120A2A",
"$  c #1A0C2C",
"%  c #110529",
"&  c #2B0A26",
"*  c #250C2A",
"=  c #290927",
"-  c #350C27",
";  c #340C2A",
":  c #360A27",
">  c #2C1229",
",  c #341A25",
"<  c #361128",
"1  c #361728",
"2  c #2D1230",
"3  c #351331",
"4  c #460C28",
"5  c #530D29",
"6  c #56072A",
"7  c #49162A",
"8  c #531229",
"9  c #5C122A",
"0  c #551D2B",
"q  c #481736",
"w  c #5A1D37",
"e  c #570A31",
"r  c #630B2C",
"t  c #680E2B",
"y  c #770B2D",
"u  c #64132A",
"i  c #6A152B",
"p  c #661B2A",
"a  c #6A1B2B",
"s  c #7E1A2C",
"d  c #77162B",
"f  c #641B34",
"g  c #751234",
"h  c #563429",
"j  c #4D292D",
"k  c #69232C",
"l  c #64252B",
"z  c #7A282E",
"x  c #673924",
"c  c #782E30",
"v  c #74492D",
"b  c #562642",
"n  c #692543",
"m  c #7E3953",
"M  c #7D5E45",
"N  c #941B2D",
"B  c #9A1D2E",
"V  c #96162D",
"C  c #940D31",
"Z  c #9B1031",
"A  c #8B1330",
"S  c #A61D2E",
"D  c #A61532",
"F  c #BD1732",
"G  c #83252D",
"H  c #9A3632",
"J  c #922D39",
"K  c #A5232F",
"L  c #AA232F",
"P  c #AD2D2F",
"I  c #A52933",
"U  c #B32631",
"Y  c #BD2D31",
"T  c #A73531",
"R  c #B43C33",
"E  c #A9382E",
"W  c #C41C3A",
"Q  c #D71837",
"!  c #EB153B",
"~  c #E51B3E",
"^  c #EC1B3B",
"/  c #EA163A",
"(  c #F31C35",
")  c #F31B3A",
"_  c #F91B38",
"`  c #C72931",
"'  c #C52831",
"]  c #DD2B34",
"[  c #DA2432",
"{  c #C83334",
"}  c #DB3536",
"|  c #EB233A",
" . c #E72939",
".. c #F42433",
"X. c #FA2535",
"o. c #F52B33",
"O. c #FB2C34",
"+. c #F92938",
"@. c #E23234",
"#. c #E33C34",
"$. c #E83638",
"%. c #F53434",
"&. c #FC3534",
"*. c #F23C35",
"=. c #FD3C36",
"-. c #F9383B",
";. c #995C21",
":. c #A5482C",
">. c #B54731",
",. c #AA5928",
"<. c #9B6D3A",
"1. c #A67335",
"2. c #AE6B27",
"3. c #C94634",
"4. c #DD4836",
"5. c #CC5A2E",
"6. c #FC582D",
"7. c #E44635",
"8. c #FE4436",
"9. c #FE4B36",
"0. c #FF4539",
"q. c #FE4C38",
"w. c #F34539",
"e. c #E35634",
"r. c #FD5436",
"t. c #FD5B36",
"y. c #FD5439",
"u. c #FE5B39",
"i. c #F35B37",
"p. c #FC4D2C",
"a. c #C8732A",
"s. c #E6692E",
"d. c #FF662C",
"f. c #FF742E",
"g. c #FE7D2D",
"h. c #F8762A",
"j. c #FE6335",
"k. c #FE6B34",
"l. c #FF6138",
"z. c #FF6B3B",
"x. c #F36E36",
"c. c #FF7333",
"v. c #FF7C32",
"b. c #FB7939",
"n. c #E4722D",
"m. c #872946",
"M. c #982E46",
"N. c #903A53",
"B. c #A83352",
"V. c #BD3855",
"C. c #B61C40",
"Z. c #DC1E44",
"A. c #DB1944",
"S. c #E21B41",
"D. c #E41740",
"F. c #DB2346",
"G. c #D92C4D",
"H. c #D92749",
"J. c #CA3B4A",
"K. c #D93648",
"L. c #D52D51",
"P. c #CC3555",
"I. c #D53455",
"U. c #D53D5B",
"Y. c #D83855",
"T. c #C3274A",
"R. c #E22944",
"E. c #E63546",
"W. c #ED3847",
"Q. c #8C4A54",
"!. c #816341",
"~. c #B7546C",
"^. c #B24B65",
"/. c #B55B48",
"(. c #D4405E",
"). c #D74057",
"_. c #CE494D",
"`. c #E84747",
"'. c #F84947",
"]. c #EC554A",
"[. c #F35143",
"{. c #F15C41",
"}. c #E94951",
"|. c #E95251",
" X c #FB6845",
".X c #F46949",
"XX c #D24561",
"oX c #D74966",
"OX c #D6536D",
"+X c #D75972",
"@X c #CC526C",
"#X c #D88F34",
"$X c #E58727",
"%X c #FE8B27",
"&X c #FF832B",
"*X c #FF8A2A",
"=X c #F68029",
"-X c #FF942C",
";X c #FE9C2D",
":X c #FC9329",
">X c #FE843B",
",X c #FF8735",
"<X c #FF9532",
"1X c #FF9838",
"2X c #E58F2E",
"3X c #DEA03F",
"4X c #FFA22F",
"5X c #FFA43C",
"6X c #FFAA3A",
"7X c #FAAB38",
"8X c #FFB53D",
"9X c #FFB438",
"0X c #E4A038",
"qX c #B4924E",
"wX c #C89845",
"eX c #CB9354",
"rX c #FB8948",
"tX c #FD9A48",
"yX c #FD9A5A",
"uX c #E88B4B",
"iX c #FDAA47",
"pX c #FFBA44",
"aX c #FFB84B",
"sX c #FFAA56",
"dX c #FCB859",
"fX c #E8B351",
"gX c #E8BE61",
"hX c #FFC548",
"jX c #FEC452",
"kX c #FFCB53",
"lX c #FDCE5E",
"zX c #FFD35B",
"xX c #FFD455",
"cX c #FEC765",
"vX c #FED563",
"bX c #FFDA65",
"nX c #FFDD6B",
"mX c #E4C164",
"MX c #FFE06C",
"NX c #FFE371",
"BX c None",
/* pixels */
"BXBXBXBXBXBXBXBXBXBXBXBXBXBXBXBXBXBXBXBX+ + + O + + O O BXBXBXBXBXBXBXBXBXBXBXBXBXBXBXBXBXBXBXBXBXBXBXBXBXBXBXBXBXBXBXBXBXBXBXBX",
"BXBXBXBXBXBXBXBXBXBXBXBXBXBXBXBXBXBXBXBX+ + O + O + O O BXBXBXBXBXBXBXBXBXBXBXBXBXBXBXBXBXBXBXBXBXBXBXBXBXBXBXBXBXBXBXBXBXBXBXBX",
"BXBXBXBXBXBXBXBXBXBXBXBXBXBXBXBXBXBXBXBX+ + + O + O O O BXBXBXBXBXBXBXBXBXBXBXBXBXBXBXBXBXBXBXBXBXBXBXBXBXBXBXBXBXBXBXBXBXBXBXBX",
"BXBXBXBXBXBXBXBXBXBXBXBXBXBXBXBXBXBXBXBXBX+ O + + + O + BXBXBXBXBXBXBXBXBXBXBXBXBXBXBXBXBXBXBXBXBXBXBXBXBXBXBXBXBXBXBXBXBXBXBXBX",
"BXBXBXBXBXBXBXBXBXBXBXBXBXBXBXBXBXBXBXBXBXBXBXBXBXBXBXBX+ + + BXBXBXBXBXBXBXBXBXBXBXBXBXBXBXBXBXBXBXBXBXBXBXBXBXBXBXBXBXBXBXBXBX",
"BXBXBXBXBXBXBXBXBXBXBXBXBXBXBXBXBXBXBXBXBXBXBXBXBXBXBXBX+ + + + BXBXBXBXBXBXBXBXBXBXBXBXBXBXBXBXBXBXBXBXBXBXBXBXBXBXBXBXBXBXBXBX",
"BXBXBXBXBXBXBXBXBXBXBXBXBXBXBXBXBXBXBXBXBXBXBXBXBXBXBXBX+ + + + BXBXBXBXBXBXBXBXBXBXBXBXBXBXBXBXBXBXBXBXBXBXBXBXBXBXBXBXBXBXBXBX",
"BXBXBXBXBXBXBXBXBXBXBXBXBXBXBXBXBXBXBXBXBXBXBXBXBXBXBX. . . O . + BXBXBXBXBXBXBXBXBXBXBXBXBXBXBXBXBXBXBXBXBXBXBXBXBXBXBXBXBXBXBX",
"BXBXBXBXBXBXBXBXBXBXBXBXBXBXBXBXBXBXBXBXBXBXBXBXBX  . O . . O O O O O . O . . BXBXBXBXBXBXBXBXBXBXBXBXBXBXBXBXBXBXBXBXBXBXBXBXBX",
"BXBXBXBXBXBXBXBXBXBXBXBXBXBXBXBXBXBXBXBXBXBXBXBX+ + + + + O O + + O + + + + O O BXBXBXBXBXBXBXBXBXBXBXBXBXBXBXBXBXBXBXBXBXBXBXBX",
"BXBXBXBXBXBXBXBXBXBXBXBXBXBXBXBXBXBXBXBXBXBXBXBX- < - < - - & & = + + = & : : : BXBXBXBXBXBXBXBXBXBXBXBXBXBXBXBXBXBXBXBXBXBXBXBX",
"BXBXBXBXBXBXBXBXBXBXBXBXBXBXBXBXBXBXBXBXBXBXBX7 0 l k a a i 9 4 & @ = - 4 9 u 9 4 BXBXBXBXBXBXBXBXBXBXBXBXBXBXBXBXBXBXBXBXBXBXBX",
"BXBXBXBXBXBXBXBXBXBXBXBXBXBXBXBXBX. .     . > 0 G H E P L K N i 4 & & 4 d N N G 9 & .     . . BXBXBXBXBXBXBXBXBXBXBXBXBXBXBXBXBX",
"BXBXBXBXBXBXBXBXBXBXBXBXBXBXBXBX+ O O % O + , l H 3.4.7.#.[ F A 5 - - 9 N ' ` K a : @ . O + O O BXBXBXBXBXBXBXBXBXBXBXBXBXBXBXBX",
"BXBXBXBXBXBXBXBXBXBXBXBXBXBXBXBX2 2 ; > & < 0 G >.e.t.9.8.o.[ V 9 : : i P @.@.Y G 0 < ; & - - ; BXBXBXBXBXBXBXBXBXBXBXBXBXBXBXBX",
"BXBXBXBXBXBXBXBXBXBXBXBXBXBXBX3 q w w w l k z :.5.x.f.t.0. .Q Z 6 & : i P 7.7.} P G k p p i u 9 4 BXBXBXBXBXBXBXBXBXBXBXBXBXBXBX",
"BXBXBXBXBXBXBXBXBXBXBXBXBX% * q n n M.M.H T >.5.n.h.&Xk.9. .W C 6 = > f E e.r.e.3.R T I I K B s 8 & . BXBXBXBXBXBXBXBXBXBXBXBXBX",
"BXBXBXBXBXBXBXBXBXBXBXBX% $ 2 w m.B.V.U._.4.e.n.=X%X=Xc.w.} T.A e ; 1 x :.e.j.j.i.e.7.7.#.] ' B u - @ . BXBXBXBXBXBXBXBXBXBXBXBX",
"BXBXBXBXBXBXBXBXBXBXBXBX* 3 q n M.V.U.}.`.y.j.f.g.%X*Xh.i.4.J.J f w j v ,.s.c.k.k.l.y.y.8.=.@.U s 8 - & BXBXBXBXBXBXBXBXBXBXBXBX",
"BXBXBXBXBXBXBXBXBXBXBX3 q b n m.B.P.Y.W.'.0.9.j.f.&X&Xv..X.X_./.!.M M /.a.2X&Xg.c.k.j.r.r.9.*.{ K s u 8 < BXBXBXBXBXBXBXBXBXBXBX",
"BXBXBXBXBXBXBXBXBX+ 2 q b m N.B.V.L.R.E.-.-.=.p.j.d.g.>Xb.rXuXeXeXqXeXeX3X2X%X*Xv.c.z.j.u.y.9.#.{ U B d 8 & . BXBXBXBXBXBXBXBXBX",
"BXBXBXBXBXBXBXBX. $ 2 b m ^.^.@XP.L.R.R.| o.%.8.9.t.z.b.rXiXsXfXmXmXmXmXiX;X:X%Xg.c.k.l.u.t.q.w.*.@.` B u - @ . BXBXBXBXBXBXBXBX",
"BXBXBXBXBXBXBXBX  % 2 b N.~.@X@XU.L.H.R.| | %.-.w.q.z..X>XiXiXdXdXcXcXaX6X;X%X&Xg.c.k.l.l.y.9.9.8.=.@.U s 8 - & BXBXBXBXBXBXBXBX",
"BXBXBXBXBXBXBXBXX % 2 b Q.~.+X+X(.I.G.G.R.E. .E.W.7.[.s..X.XuXyXyXyXyXtX>Xg.g.d.f.k.z.l.y.9.q.9.0.8.*.` K s i u BXBXBXBXBXBXBXBX",
"BXBXBXBXBXBXBXBX  O 2 b N.~.+X+XoXU.I.Y.I.Y.E.E.E.E.W.`.`.{.]..X.X.X X{.{.t.t.6.j.j.t.t.9.0.8.0.q.q.9.#.` U L S BXBXBXBXBXBXBXBX",
"BXBXBXBXBXBXBXBX. + < b N.~.+X+XoXoXU.U.U.U.Y.I.G.G.F.F.G.K.K.E.W.W.+.+.=.8.8.r.r.u.u.q.0.=.=.8.q.r.9.w.*.@.] ] BXBXBXBXBXBXBXBX",
"BXBXBXBXBXBXBXBX= : q n N.@X@XOXoX(.(.XXXXXXU.U.L.H.F.F.A.Z.A.A.D.D._ _ X.O.&.8.q.q.y.9.0.8.=.8.9.y.r.9.8.=.%.@.BXBXBXBXBXBXBXBX",
"BXBXBXBXBXBXBX4 6 r y m.B.V.oXoXoXoXoXXXXXXXXXI.L.H.F.A.A.A./ ! D.D._ _ X.O.O.&.=.8.9.9.9.8.9.9.r.y.r.9.0.8.*.} L BXBXBXBXBXBXBX",
"BXBXBXBXBX+ : 6 y C Z C.T.L.U.U.(.XXXXXXXXXXXXP.L.T.Z.A.A./ ! ! ( ( ( ..X.X.o.O.&.=.8.9.r.r.t.t.r.r.q.q.9.0.#.{ G 7 @ BXBXBXBXBX",
"BXBXBXBX. + : 6 C F Q / A.Z.G.I.U.U.(.oXXXXX(.I.L.Z.Z.A.D./ ! ( ( ( ........o.O.O.&.=.9.r.j.j.j.t.r.r.q.9.9.7.P d < +   BXBXBXBX",
"BXBXBXBX. + : t Z Q ! ) S.R.F.G.L.U.U.(.(.U.Y.I.G.F.S.~ / ! ( ( ( ( ........o.O.&.&.8.9.t.j.j.j.t.r.q.q.9.9.} T k - + . BXBXBXBX",
"BXBXBXBX. @ : t D Q _ _ D.D.S.H.L.I.I.Y.Y.Y.E.E.F.R.| ~ ^ ) ( ( ( ....o.X.O.o.O.&.=.8.9.t.j.j.l.t.r.9.y.9.w.4.I p - @ . BXBXBXBX",
"BXBXBXBX. + : i D  .+._ _ ! D.S.H.G.G.G.R.E.$. . . .| ..( ( ..( ......X...O.O.&.=.q.9.r.r.t.u.r.t.y.y.q.0.8.} K p - + . BXBXBXBX",
"BXBXBXBX. + - i S  .+.+._ ) D.D.S.F.H.F.R. .......| ................o...O.&.&.=.9.9.y.y.r.y.i.r.r.u.y.q.0.=.] K p - + . BXBXBXBX",
"BXBXBXBX. O - a K @.&.+.+._ ) ~ S.Z.F.| | +.o.o.o.o.o.o.o.o.o.o.o.o.o.o.=.=.p.8.r.y.y.y.r.r.r.r.y.u.y.q.8.&. .L i - + . BXBXBXBX",
"BXBXBXBX. + - a P #.=.=.+.X.) ) ~ ~ | ~ ....X.O.O.%.&.=.%.%.*.*.=.p.p.p.p.p.r.p.r.y.u.i.u.t.r.t.u.y.y.q.=.&.@.S i : + . BXBXBXBX",
"BXBXBXBX. O - k E 7.9.8.&.O.+.....^ | | ..X.O.&.=.=.8.8.0.8.8.9.9.r.t.t.j.d.j.t.t.r.r.t.t.l.j.t.t.r.9.9.8.&.@.S i - + . BXBXBXBX",
"BXBXBXBX. + < k T 4.9.0.8.&.O.X...+...o.o.&.&.=.8.r.r.p.y.y.r.t.t.j.k.k.f.f.f.d.t.r.r.t.j.k.j.j.t.r.9.0.=.&.] K i ; + . BXBXBXBX",
"BXBXBXBX. @ < l H 3.7.w.=.%.=.&.%.%.%.=.=.0.q.y. X Xz. Xz.l.z.k.c.f.b.v.g.g.v.k.t.r.y.t.l.k.z.j.t.q.w.*.%.@.` B u - + . BXBXBXBX",
"BXBXBXBXBX@ < 0 c H R 3.7.*.8.8.p.p.6.6.t.l. XrX XrXrXtXrXrX>X,X,X*X&X&X&Xv.f.j.i.i.9.r.l.j.k.t.y.8.w.} ` U K s 9 - + BXBXBXBXBX",
"BXBXBXBXBXBXBX7 0 k G E { 7.r.6.d.d.h.g.&X>XrXtXsXdXsXsXsXtXtX1X<X:X%X*Xg.c.k.j.r.r.9.i.t.t.t.r.9.8.$.` K G u 9 4 BXBXBXBXBXBXBX",
"BXBXBXBXBXBXBXBX& < 0 z R e.t.k.h.%X%X;X5X5XaXdXcXcXnXcXdXaX6X5X4X;X%X&Xf.j.t.y.r.q.q.r.u.u.u.y.8.=.@.U d 8 - & BXBXBXBXBXBXBXBX",
"BXBXBXBXBXBXBXBX  + , l E e.f.v.:X4X7X9XpXjXjXlXbXbXvXlXjXaXiX6X;X;X%X&Xk.j.u.y.r.r.r.r.y.u.r.q.8.&.] S i : @ . BXBXBXBXBXBXBXBX",
"BXBXBXBXBXBXBXBX  O < l :.s.g.<X4X8XhXhXkXzXzXzXzXzXkXjXaXiXiX1X<X*X&Xf.k.t.y.r.r.u.i.t.t.y.y.9.=.&.[ S u - .   BXBXBXBXBXBXBXBX",
"BXBXBXBXBXBXBXBX  O , l ;.n.;X7XpXkXzXzXbXbXbXzXkXhX8X6XiX1X,X>Xv.v.k.j.t.t.r.r.l.l.j.j.t.r.9.0.=.&.[ S u - O   BXBXBXBXBXBXBXBX",
"BXBXBXBXBXBXBXBX. O , x ,.$X;X8XjXzXNXNXNXnXnXkXhX9X4X-X,X,Xb.b.z.j.l.t.r.r.r.u.l.k.z.j.t.r.8.8.&.o.[ S u : O   BXBXBXBXBXBXBXBX",
"BXBXBXBXBXBXBXBX. O , x ;.a.#X7XjXvXNXNXNXnXvXjX8X4X:X&Xg.c.k.l.j.t.y.y.y.w.i.u.l.j.j.t.r.9.w.%.@.[ F N 9 : @ . BXBXBXBXBXBXBXBX",
"BXBXBXBXBXBXBXBXBXO , h v ;.1.#XfXvXbXbXbXzXkXpX4X:X%Xg.f.k.j.j.u.y.y.y.[.[.[.[.u.t.r.y.0.-.$.] ' S V d 5 ; + BXBXBXBXBXBXBXBXBX",
"BXBXBXBXBXBXBXBXBXBXBX7 h x v 1.#XmXxXxXhXhX9X4X4X*Xg.c.c.j.l.u.y.y.y.[.].].].[.y.q.8.=.&.O./ W V d u 5 4 BXBXBXBXBXBXBXBXBXBXBX",
"BXBXBXBXBXBXBXBXBXBXBXBX> , h v qXfXhXhX9X7X4X:X%X&Xc.k.l.u.u.y.r.y.[.[.].|.|.}.'.=.&.O.+.( Q D y 5 : & BXBXBXBXBXBXBXBXBXBXBXBX",
"BXBXBXBXBXBXBXBXBXBXBXBX  # , v <.wX3X3X2X#X$Xn.h.c.k.j.l.u.y.y.q.q.[.[.|.|.}.`.E.}  .[ Q Q F C r : + . BXBXBXBXBXBXBXBXBXBXBXBX",
"BXBXBXBXBXBXBXBXBXBXBXBXBXo , h v <.1.<.2.2.2.a.s.k.l.l.y.q.q.q.'.'.'.'.'.'.`.K.{ U S D D Z C y 6 = . BXBXBXBXBXBXBXBXBXBXBXBXBX",
"BXBXBXBXBXBXBXBXBXBXBXBXBXBXBXj h v v v x x ;.:.5.i.u.u.y.0.0.0.'.'.'.'.'.'.E.{ K s t r r t r 6 : BXBXBXBXBXBXBXBXBXBXBXBXBXBXBX",
"BXBXBXBXBXBXBXBXBXBXBXBXBXBXBXBX1 1 2 , , , 7 c >.e.y.y.0.=.&.W.'.}.}.}.'.-.@.U s 7 : ; & ; : & BXBXBXBXBXBXBXBXBXBXBXBXBXBXBXBX",
"BXBXBXBXBXBXBXBXBXBXBXBXBXBXBXBX+ + + + . @ 3 k H 3.4.7.#.@.] K.K._.).K.E.] ` B u : + % . @ @ @ BXBXBXBXBXBXBXBXBXBXBXBXBXBXBXBX",
"BXBXBXBXBXBXBXBXBXBXBXBXBXBXBXBX. . .   . . * 7 k H T T P L K I J M.M.J I K N d 7 * o o o o o # BXBXBXBXBXBXBXBXBXBXBXBXBXBXBXBX",
"BXBXBXBXBXBXBXBXBXBXBXBXBXBXBXBXBX% . X X % * 3 7 k k a a a i f f f f f f i u 8 ; * # o o o # BXBXBXBXBXBXBXBXBXBXBXBXBXBXBXBXBX",
"BXBXBXBXBXBXBXBXBXBXBXBXBXBXBXBXBXBX$ $ $ $ $ 2 < < < - < - ; ; ; 3 < ; ; - ; ; * * $ $ $ $ BXBXBXBXBXBXBXBXBXBXBXBXBXBXBXBXBXBX",
"BXBXBXBXBXBXBXBXBXBXBXBXBXBXBXBXBXBXBXBXBXBX$ $ @ @ + + + + + + @ + O $ @ @ + @ $ $ BXBXBXBXBXBXBXBXBXBXBXBXBXBXBXBXBXBXBXBXBXBX",
"BXBXBXBXBXBXBXBXBXBXBXBXBXBXBXBXBXBXBXBXBXBXBXBXo o . % . O o . O O . . . . o o BXBXBXBXBXBXBXBXBXBXBXBXBXBXBXBXBXBXBXBXBXBXBXBX",
"BXBXBXBXBXBXBXBXBXBXBXBXBXBXBXBXBXBXBXBXBXBXBXBXBXBXo o o # o o # o % o o o BXBXBXBXBXBXBXBXBXBXBXBXBXBXBXBXBXBXBXBXBXBXBXBXBXBX",
"BXBXBXBXBXBXBXBXBXBXBXBXBXBXBXBXBXBXBXBXBXBXBXBXBXBXBXBXBXBX$ $ $ $ BXBXBXBXBXBXBXBXBXBXBXBXBXBXBXBXBXBXBXBXBXBXBXBXBXBXBXBXBXBX",
"BXBXBXBXBXBXBXBXBXBXBXBXBXBXBXBXBXBXBXBXBXBXBXBXBXBXBXBXBXBXBXBXBXBXBXBXBXBXBXBXBXBXBXBXBXBXBXBXBXBXBXBXBXBXBXBXBXBXBXBXBXBXBXBX",
"BXBXBXBXBXBXBXBXBXBXBXBXBXBXBXBXBXBXBXBXBXBXBXBXBXBXBXBXBXBXBXBXBXBXBXBXBXBXBXBXBXBXBXBXBXBXBXBXBXBXBXBXBXBXBXBXBXBXBXBXBXBXBXBX"
};
