/* XPM */
static char *result[] = {
/* columns rows colors chars-per-pixel */
"64 64 19 1 ",
"  c #548D00",
". c #5A8F00",
"X c #569300",
"o c #5B9500",
"O c #5E9900",
"+ c #619600",
"@ c #639D00",
"# c #699F00",
"$ c #66A100",
"% c #6BA400",
"& c #6EA900",
"* c #70A700",
"= c #72AC00",
"- c #78AE00",
"; c #6FB000",
": c #75B100",
"> c #79B300",
", c #7EBA00",
"< c #80BC00",
/* pixels */
"&==::&&@OO$:::&@@@$+$%&===&%$&%+@+@@%&**&@@@@@ooXXo@$&$$%;:&%%@$",
"@&&:;%%&&&%::=$O+*=&%&*&&%%%&&=&$Oo$%%%&&==*%OoX oo@%%%&&:=&&&$$",
"O&;:;&&:;&%&=%@oO*-*%*%*&$$&====%oXO$@@*=:==%oooOXO$%%&=:;&=&&&@",
"O%&::&&:;%$$@@+oO$%%&%%#$$%=:>-=@  o+++=-=*%@++%%%$$$$@&&&&&&;$@",
"$&&::;=:&$+oooo++#$%*&%#@@%&=-=*@oXo+OO&=**%#@@&;&$$$@$$&%&&;&%$",
"$&;:::::=%@o  o##@@=*&%#@Oo@$$&==&%%$OO%&*&&&%%=%@OOOO@$&&=&;;&&",
"&&&&:;;:=%@o. X@%#%&*=%*%+O@$@%=-==&%+O%%&&**%%&%+OXO+@$%%:::::&",
";::&;%&:::&%o o@%%&=-*&*&@$&&%%%&=*&%#%&&=*%%#$%$OXXXXO$&:>>,,>:",
"::=%&$%::::&$o+$%&**=&&==%&==&$%%**&%**=*&==&&%$OXX XoO$&;:>,>>>",
"::&%$@$&>>>:=@@@#=*%#%&-:&===%%$%==**-=@%->,,:%@OX XXO$$%%->>>>,",
":=&%O$$&::>>-%@@@*=++%*-:&&=&%%%&--**-=%&:,<,>=@OoooO$$%&%===::>",
"*&%%$$%&===::=%+@%$oo#**=&%$$@%%*>>-***=->>:=&&&%&&$$OO$&$%%&%&=",
"=&%&&$%%&%&--*%@+%@ .#**-=%$$@$%=--&&&*>:::&**&&&::&%$@%%$@$%$%%",
"&%&&%%%%%%%->-*@++OXo#%*=:&&$$$@+@@@@&*&=::&&==&&::%%%&&%@O@@@$%",
"$%%*%%$$%%*>>**@+++o+@%=>>:$O$@OOoO+#&*==:-&%==&&::%%&:&%@O@@@O$",
"$@@%%$O$$%:>>=&#+oo###%->>=O XooO@@@#&*>>:&%%&&=&::&&&::%OO@$@@$",
"@+O%%$OO@%=:>:%$OO+%&##=--*o .o@@@#@@&=:>::%&%%&&::&&;;:%$O$@$@$",
"%$O&&%$$%$%&::;@O$%&#@@#%&%@@@$&&%@@@$&::&&&&$%$&;::;;&&&&$O@OO&",
"%@$%&&&$$$%%&::@$%&&%#@#%@#%%%%==%@@@%&=:=&:&%@O$;:;;;;&&&&$O$$;",
"&$$&&%%&%%$%&::&%&-=**%#@@#%&$%&&%@%%&&==-=:&$OOO&:;&;$&&;;&;&;$",
"O$&$$$$&&%$&&=:&&=:=-=&#$@$%*%**&@%&&=:=====&@oXO&;&$&$;&;;;&;&$",
"O$&$@@$$$&%%&&=&==:--=*@@+@&**=**##&-:=&%==%$OX o$&$$O&$;;$$OOOO",
"O$;O$O@$%&;&=&%%&=-===%@OO@*****&$@==:*#%&&$@@OOO%&$OO&&&$$$OOOX",
"O;;$OOO$&::==%$%%*:&%*@oX.+***%%@O+%&=&@@%=%%&=&;::$O&$;&&$OOOOX",
"$;&$@O@$&::;&$@@%==&*&%Ooo+%*%%$@oO%&&&+@$%@$=-&:>;$@$$&$$$$OOOO",
"$&&@OOO&&;::&$@@@%%=--**#@@**%@+ooO%::&+oO+Xo@%&&:&$O$&$$O$;;$OO",
"$$$@@O$%&&;&%&$%$$#&*--***&==%$++O@&>>=@O@o  O@$$&%$$&&$OO$;;$$$",
"O$O$$$%%%&&&&;;:%@@@**-****-:&%%%$%:>>-&%%+  o@@$&&&;,:&OO$;;$OO",
"O@@$%%%%&$$;;:>:&@O@@%%&***--=&%%%&=:-=&%&@oo@%@$%%;:,,%@@$&$OOO",
"@O$%=:&%@@%;:,>>&@O+ooo@#%***%#&&%$%=%%++@@++#%%$$%&::&&&&%%$@OO",
"OO@%&:=%$$&;,::*&$O+o  o@#%&&##**%%%%%@++%%@#&%$@@$&&&&%$;&$$$$$",
"OXO@%==%$$&::=%$+O@$+  O#%**%@@*=&&&%%%%%%**%#@ooX@&::&$$%:%%;&$",
"+o+@&&&%%&=>:%$O+@@%%oo@#%%&%@@&==***%%%&*-**%+OOo$->=&@@%&%&--%",
"&@%%&&&%&:::=%$$$#&&&=*%%%*=&##*=*=-*O+@=->>*%@#&*:>:%@$$@@O@>>=",
"%%&&*%%$%&&&%@O$@%&==>-&%%%*&@#**%=-=+O%--->-&#%&=->-@O+@OooO=-&",
"+@%**#@+OO@@@ooO@&&==--=&&%%%##%%##&&@#->****-=%@O@==@ooooOo+%%+",
"o+$&&$+oOOO@OOOO@&=-*-=*%%%#%#%%%@+%&%*>>*%#=>=%+oo%%@o  O++@@@o",
"Xo$%%%$$@%%&&%%%%==:-=*@##%%%&*&%O@&=**-***&**=#ooo@#@o  +$@@OoX",
"OO@%%@@%%%%=:&&&&==:*=#@+##%****%$@%*-*-*=**&**@Oo+@@#@oo+#@@@@O",
"$%$%%@@Oo+@&&&:%%%%&&$+OO##%%&=*&$%*-**%%*=%%%%%%#$$#&&+O$%@@%%%",
"=&%%%#@Oo@$%&:=&%$%&%@+OO@$%$$#*&%#*-**@#*-%$$&&*&%#%=-#$$@@@%&=",
">=%&==&%$%%&=::=*&%==@@@@$@+Oo##%#%***%##*&@O%&=**%@%>>%%@$O@%-:",
">*&==:-==&&%=-=-=&*-=$@$%@+o. o#*#%*#%%#%&%O+%***&%&*--&%@@+@%&:",
"*#%=:&=-::&%$%&*&&&-=$@%%$O   +%*#+@@@@%&%@@@%%##@%&-=&*%%%%%%&=",
"$$$&=%&:--&O+$#&=**::&$%%@OX .@**%++OO@%%@@$@%%++@%--%@%%%%%%%$$",
"OOO&&%$%%&%Oo+@&==:>>:=$@@Ooo+#-*@+oO+@@#@+$%%@Oo@&:-@O@&%&&&$$@",
"OXo%%@OO@&%OoO$&&%=:>>=@@%#%@@%*-#+@@@@#+o+$%%%@@@#==oo$%#%&&$@O",
"OXo$$OoO@&&$O$$%#@$%=-=$@=-*&%@&=#%&==%@OoO@@&&*%$+@@OO@$+@@@$+O",
"O@@%$oXO%&;%$&$$@OO$&==#%->-&$@&*%**--&$OOOO@%::=%O$$@@@$OO@@$@O",
"%&:&%$@%;%%&&&&OooXO@&*&=>:$$%&=&%&**=&%@@@O@&;::%$$$%&%%%$O@&%%",
"&:,-&%%&&&$&&%&OooXOo%&*-:=@$&=&&#%=-&%%$$@OO$&:>&%$%&&&&;&@@&;%",
"%::::&;&&$@$&$$OOoooO+$&:=&%$=-%%@%=*%%%$$OooO$&:=%$$&&;:,=%%::%",
"&&;:=&&:;$O$@@OOOOOOOO@%&%%$%=:%@@%**%%%&@OXXo@&==&%%%&;:::&&;:&",
"&%%&&&&;;&OOOOOoOO@+OO+@OOO@%&&&%%*-:=&&$OX XXO&==;%$@$;;=:&&::&",
"&%$%&$%&;$$OOOooo@@@$$@OOOO$%%&&**=*=-&&&OOXXX@%&:=%$O$$%&=&&:::",
";$O$$$&;;&&&&$OOO@$%%$@OOO%&%O$&-*%#@&;;&$$OOO$&:::%$$O$%%&=::&:",
";$O$$$$;;;&;&%$O@@%%#%$@$$%%$oO&=%@oo#*=&&%%$%%&&::&&$$O%&&=&%&;",
"&OO$&&&&;&;::=%%@&%%#@+@$%%%$Xo%&%o  +%%&&=&&&=::::;&$&&&;::&&%&",
"&OO$&&&;&&&:>=&&%*&#@@+%%$$$@oX$%#@oo+$%&==-:::::&;&&$$&&::&&$$&",
"&$$$&$&&&&&;:=&&&**&%@#&%OO+@OO@@@@@@%%%%&::>::=&%&&&$$&&=:&$$O&",
"&&$$&$&&&&%=-=*%%*=&%%%&%Oo@@$$@@@#%&%%#%&&=::=%%%$$&$$$$;&&$$$;",
";&&&&$$;&&&&==*%$%&%%%&::$@$%%$O+@%&&%##@$%%%&%@OOO$$OOO@$&&$OO;",
":&&$$$$&$$%&-&&#%%%%%%=-:*%$%%%+O@#%%%%%$#$@$%$OXOO$$@@oO&&$$$$;",
"&;;;;&&OOO$=:-=#@+@@@%&===*%$$$OO@##%***%@+@@$@oXXOO@$@O@%;;$OO;"
};
