/* XPM */
static char *result[] = {
/* columns rows colors chars-per-pixel */
"64 64 43 1 ",
"  c #5F8B08",
". c #628D06",
"X c #628D0B",
"o c #659206",
"O c #699507",
"+ c #6C9806",
"@ c #66920B",
"# c #6A950D",
"$ c #6D9A0C",
"% c #719D0D",
"& c #648E11",
"* c #669112",
"= c #6B9612",
"- c #6E9A13",
"; c #6C9519",
": c #6F9A19",
"> c #729D14",
", c #729D1B",
"< c #74A10E",
"1 c #78A30E",
"2 c #75A214",
"3 c #79A615",
"4 c #7BA915",
"5 c #76A11B",
"6 c #79A51C",
"7 c #7DAA1C",
"8 c #749E21",
"9 c #76A121",
"0 c #7BA522",
"q c #7EA923",
"w c #7CA629",
"e c #7EA92A",
"r c #7FA930",
"t c #80AD1D",
"y c #83B11D",
"u c #81AD24",
"i c #82AC2B",
"p c #85B125",
"a c #85B12A",
"s c #89B42B",
"d c #8CB92C",
"f c #82AC31",
"g c #86B132",
/* pixels */
"47tt443-$$2qae0:>,,,8,0q7u63,7,>>=-,9www8,>,>=-OXO#>222>24t43%<2",
">37t7634436aaq5-=we9906q66626qu62==,9990qqqq,=XXXX@>3667tt77433%",
"+34t744t746qq9:*=quq00966>>3tuit>OX:8,,qiuuu6=@###=2256tu474442+",
"+34yt77y73->::-;:,8w00666>3uuuiq>XX#;=:eiuq9,==65,222>267443342%",
"%34yyyty72$=***-,:,90608,>26uuuq6*@;=*:qiu0,,>,qq622:--233344t3%",
"244yyyuy4>-@@X&,8,,quw66,##>259q0555,;;99q6q656q6>=#$->226tttut<",
"4q7447utt6,=XX*,988wi09,,##>>,5qqae09::9866qq6605-@@#$-%36tuppt7",
"qu77447qut7,=X*>68wuuw006>2666560qq05550qqq95,,65=@oo@#26tpaassu",
"put62257uuuq,==:6wiiq96uq66uu66,5qw09qwq0uuuq65,-#@..o%>6tassssp",
"uu62>%2qpsaiq,::8ww889wqut6uu6360qe09iq,,issdu6-#...#>>>67upppps",
"pq62>%27uiasi0,,,ww,,8qiu76t6>3,qiaewie56usddu7>##@##>,>56quuttp",
"u6665>2quuuuiw9-,88**8quu663>>,6qasewiqqussuu766666>>>>362>66>tu",
"66666250q6qiai8,;,,X&8wuuq6>>>>6qii000iuuppq66677uu6>>>>6,>>,>66",
"63766525056uai9,;;=&;,8wuiu6>>>>-:,,50qquau66tu67uu6,3773-$>>>>6",
">>300222559isi0,;=;;;88uigu,$>--===-,0qqqpu667u67qu6,tt63$#>>>>>",
">>>65>->>5usgu9,=;*8886igsq#.@@#=-::80qiiuq6,77t7pu46uut6$#$>%>>",
",>=65>#-257paq72-;:9w8,wia0#X@#->>>,,6qaapq565434pp44y774<<$$$%2",
"2>>605>2>2577p7:=:5098:99w8,>>>66,>>,>6iaq77722%27yy747444<+<+-3",
"3>>663323<<47yp2>66q988,,886636uu>>>>26uiqquq5$$<4y74441444<%<<3",
"2>3665633<<14y7337qerw98,,,66>>q7,>236quuqqq42#O+4y7444444441433",
"%223553241<147q67qaiii0,,:,88,,wq,367tuqqquq3$#o+144<<<44441341<",
"#23>%>2<11117qq00eiieq05>:8wiiifw,,6tuu670762#ooO242<<<4441<+<++",
"o23%$$$<11477700weiqq76-==;fifi8w,567ut,5005->$#$47%%$<441<++O+o",
"$77<$++<44y7q2559uuq66>#&X;8i8u,,=>6373>,0756qq77q7<$%<441<<+Ooo",
"%77>$$$<37p772%-50q700,=**=9u8,,:*$5476=:55:2qeq7dq<<<<44<<<$#O#",
"200>-$-277y74<-%250qiiiw8,,q06,>=#-6uuq=*::o@:53477$$<<<+<<742>>",
"225:-:>57q7444<42250fffrw8wuu,>>##>qagw,-:=  #>2373<<44<++<772><",
"-::22:25744444443--,9wfffwfiu63>2>6usgf992:  =:22364qdq3%$<44$$#",
"$->2663622344yy73$#-,89wwwfii666626uiiiq992*@:9>:267qdd4>>>3<$+#",
"--:6qqq2>%47pdsq4>=;;**:888fi8,66550q98::::-:90522277qq743322$$>",
"==:6qqq3>$<qdsqq5:--= X=,,wqw8,wq55565,::59::00,-->qq766377222>$",
"#@#:6qq7237qqq75:::2-X =>80w8,,uq00009999w0069:=@@-qeqq>>6769qq:",
">==,6q7637tpi6,:,,,6,=*>,69q888qeeqwq,59qffiu8,*=*,isu6>>,6>6au6",
"6,,9966334piu5>,,,606u0669q90,,9eeiiq=*6uiiff8,,6qusi6>,>>>=,sgu",
",60qq6>227775>--,,0quai669qqq,8wqwwiq-#9iiiff889qqusu,=>>=##,ui0",
"=,,u6,>##+-$$##=>60uuiiqq9999,,69,,q0>,gfqwwwiu6>->qq;#O@*#=;,,-",
"@-,665>##+$%+##$>6uiuiq0999996,66;:6q8qgfw9wefi6=@#,6:*X.#>;;>=@",
"o=,66,,>,56663366quiiiw8,8909qqq6=>6uwfff99qwiw,=&*,,,*XX-,,,>-.",
"#>,25,,,,667444476uuiw8,,889q6qq6>,0fffrfqq90ew,-;;,,,,OX-,>,,>#",
",,6,6,,==;>37476356098;*;,8q909qq,,8ff888ii99696,85>,q6;-,>,,,6,",
"u6,6,,,-=->64qq75,669,==-,85,,8w989fiw8,8ii,,509q00,,uu,,,>>>9uu",
"gq60uuu,,566qaaeq69uu,>>,,,;;*;ww88wiw88,iw>>,qquq9,6gs6>,,=>,ii",
"au6quuut7770qfieuqqiu2->2>>*&&;8w880068,8q,>=50q0869uiiq6,,>>6qi",
"6,6uuuttyu0559wqq90u7>%22>#XX&;8w8:,;,,666,=>68,,,8uiw966,6>>6,q",
"5>>6667tuu6>=,9qqqquu6522-#X&&:wf,;;==:99,>,,,,--:0ii8,6695676>3",
"=#>666>,6q5=@-,6qquasiq5>,-=*;8iw8;;==:,,,,,56,=#:6iu>=,699q6,>-",
"#O#33>>>,95##->696qaggi,>55,,,5if8:,,,,,===,96,>>;,uq=#,66,q6,>#",
"#X@>>#X#>q6-$%23,>>0iiq,,qiu6>,q0,,qwf8,#O#>,6qu6>>,>==>,=>>>>>#",
"%%>>>#o-27722<3<>#=,6qq,6isu7>56000eere:=O#$26qpu>>>>>,,>-$>>>,>",
"2quq5-%37636463-#X@=>qq0qiu3>66q720egrw5>--$-34pt6>,>673,3>#+66>",
"3asu72377223762-#O@#->0qiuu>>6q6320erq052>-$%>37ut6>2677tt7%>6t6",
"3tpuu7444%%<222$#=*##->qut7>>uu62:5ee5>62>$Oo$27t67>>37uuyt227t3",
"77uut7771<$%%%$$##-###-566526qq65:9er662<>Oo.O%4tt7>>33tuuu77yt6",
"6637664y4<%+#####->=--->-$->57q609wggq762:o..o$6ttt>>%234uq76up7",
"4222123773<>%#@@=->>>>>##O+>666qq0wweeq72-#@oo$36tt3>%%>3q77tup7",
"4%+%<<2474335>-##>,555,##>222$>qe00:80eq62%$O$>3ttt73%%%2677tt7t",
"4$+%%2<7y444q35--,5565>>$2322@=0q0:**80076222237qyq73>%223777464",
"3$+<3374447yp7655695,,>>>235>@#5q5: X:96q7q7q7qppqq702237ttt7227",
"3%%<3774434ppq7500q5,--,6225-@@259:&&-500qqpqpeqq77q76237tt73>%4",
"32%23347744qpqq00ww0,>,65##>>+#-:5:5590567peapp77763622267t73%-7",
"73<333334647qqq00ww06>6u6=#>:%$-:,800055563qeq7632>2222%>7332%%4",
"443<1<<4336qqqq999q9966uu5>>533-=:5009985229q66>$$$>>%$$%663>%%4",
"y4311<<22<20iq05,,98666iu6,,563-=>,009995:2:222=@O$$>%$O$276<<<4",
"4y44442%#$2tiuq,,>,,,8qtuu6622:$=:,59ww09,::2::@@@O->>>#-7742+$4"
};
